<?xml version="1.0" encoding="utf-8"?>
<!-- Generator: Adobe Illustrator 22.0.0, SVG Export Plug-In . SVG Version: 6.00 Build 0)  -->
<svg version="1.1" id="Layer_1" xmlns="http://www.w3.org/2000/svg" xmlns:xlink="http://www.w3.org/1999/xlink" x="0px" y="0px"
	 viewBox="0 0 1080 757" style="enable-background:new 0 0 1080 757;" xml:space="preserve">
<style type="text/css">
	.st0{clip-path:url(#SVGID_2_);}
	.st1{clip-path:url(#SVGID_4_);fill:#F4F7FA;}
	.st2{clip-path:url(#SVGID_6_);fill:url(#SVGID_7_);}
	.st3{opacity:0.5;clip-path:url(#SVGID_9_);}
	.st4{clip-path:url(#SVGID_11_);fill:#FCFDFE;}
	.st5{clip-path:url(#SVGID_13_);fill:url(#SVGID_14_);}
	.st6{opacity:0.5;clip-path:url(#SVGID_16_);}
	.st7{clip-path:url(#SVGID_18_);fill:#BEB8F2;}
	.st8{clip-path:url(#SVGID_20_);fill:url(#SVGID_21_);}
	.st9{opacity:0.5;clip-path:url(#SVGID_23_);}
	.st10{clip-path:url(#SVGID_25_);fill:#FCFDFE;}
	.st11{opacity:0.75;clip-path:url(#SVGID_27_);}
	.st12{clip-path:url(#SVGID_29_);fill:#F4F7FA;}
	.st13{clip-path:url(#SVGID_31_);fill:url(#SVGID_32_);}
	.st14{clip-path:url(#SVGID_34_);fill:url(#SVGID_35_);}
	.st15{opacity:0.3;clip-path:url(#SVGID_37_);}
	.st16{clip-path:url(#SVGID_39_);}
	.st17{clip-path:url(#SVGID_41_);fill:url(#SVGID_42_);}
	.st18{clip-path:url(#SVGID_44_);fill:url(#SVGID_45_);}
	.st19{opacity:0.3;clip-path:url(#SVGID_47_);}
	.st20{clip-path:url(#SVGID_49_);}
	.st21{clip-path:url(#SVGID_51_);fill:url(#SVGID_52_);}
	.st22{clip-path:url(#SVGID_54_);fill:url(#SVGID_55_);}
	.st23{clip-path:url(#SVGID_57_);fill:url(#SVGID_58_);}
	.st24{clip-path:url(#SVGID_60_);fill:url(#SVGID_61_);}
	.st25{opacity:0.5;clip-path:url(#SVGID_63_);}
	.st26{clip-path:url(#SVGID_65_);fill:#F4F7FA;}
	.st27{clip-path:url(#SVGID_67_);fill:url(#SVGID_68_);}
	.st28{clip-path:url(#SVGID_70_);fill:url(#SVGID_71_);}
	.st29{clip-path:url(#SVGID_73_);fill:url(#SVGID_74_);}
	.st30{opacity:0.3;clip-path:url(#SVGID_76_);}
	.st31{clip-path:url(#SVGID_78_);}
	.st32{clip-path:url(#SVGID_80_);fill:url(#SVGID_81_);}
	.st33{clip-path:url(#SVGID_76_);fill:#FFFFFF;}
	.st34{opacity:0.44;clip-path:url(#SVGID_76_);}
	.st35{clip-path:url(#SVGID_83_);fill:#F4F7FA;}
	.st36{clip-path:url(#SVGID_85_);fill:url(#SVGID_86_);}
	.st37{opacity:0.3;clip-path:url(#SVGID_88_);}
	.st38{clip-path:url(#SVGID_90_);}
	.st39{clip-path:url(#SVGID_92_);fill:url(#SVGID_93_);}
	.st40{clip-path:url(#SVGID_95_);}
	.st41{clip-path:url(#SVGID_97_);fill:url(#SVGID_98_);}
	.st42{clip-path:url(#SVGID_88_);fill:#FFFFFF;}
	.st43{clip-path:url(#SVGID_100_);fill:#97A6B7;}
	.st44{clip-path:url(#SVGID_100_);fill:#E7EBEF;}
	.st45{clip-path:url(#SVGID_102_);fill:url(#SVGID_103_);}
	.st46{clip-path:url(#SVGID_105_);fill:url(#SVGID_106_);}
	.st47{clip-path:url(#SVGID_108_);fill:url(#SVGID_109_);}
	.st48{clip-path:url(#SVGID_111_);fill:url(#SVGID_112_);}
	.st49{clip-path:url(#SVGID_114_);fill:url(#SVGID_115_);}
	.st50{clip-path:url(#SVGID_117_);fill:url(#SVGID_118_);}
	.st51{clip-path:url(#SVGID_120_);fill:url(#SVGID_121_);}
	.st52{clip-path:url(#SVGID_123_);fill:url(#SVGID_124_);}
	.st53{clip-path:url(#SVGID_126_);fill:url(#SVGID_127_);}
	.st54{clip-path:url(#SVGID_129_);fill:url(#SVGID_130_);}
	.st55{clip-path:url(#SVGID_132_);fill:url(#SVGID_133_);}
	.st56{clip-path:url(#SVGID_135_);fill:url(#SVGID_136_);}
	.st57{clip-path:url(#SVGID_138_);fill:url(#SVGID_139_);}
	.st58{clip-path:url(#SVGID_141_);fill:url(#SVGID_142_);}
	.st59{clip-path:url(#SVGID_144_);fill:url(#SVGID_145_);}
	.st60{clip-path:url(#SVGID_147_);fill:url(#SVGID_148_);}
	.st61{clip-path:url(#SVGID_150_);fill:url(#SVGID_151_);}
	.st62{clip-path:url(#SVGID_153_);fill:url(#SVGID_154_);}
	.st63{clip-path:url(#SVGID_156_);fill:url(#SVGID_157_);}
	.st64{clip-path:url(#SVGID_159_);fill:#D8DEE8;}
	.st65{clip-path:url(#SVGID_159_);fill:#FFFFFF;}
	.st66{clip-path:url(#SVGID_159_);fill:#A598F4;}
	.st67{clip-path:url(#SVGID_161_);fill:url(#SVGID_162_);}
	.st68{clip-path:url(#SVGID_164_);fill:url(#SVGID_165_);}
	.st69{clip-path:url(#SVGID_167_);fill:url(#SVGID_168_);}
	.st70{clip-path:url(#SVGID_170_);fill:url(#SVGID_171_);}
	.st71{clip-path:url(#SVGID_173_);fill:url(#SVGID_174_);}
	.st72{clip-path:url(#SVGID_176_);fill:url(#SVGID_177_);}
	.st73{clip-path:url(#SVGID_179_);fill:url(#SVGID_180_);}
	.st74{clip-path:url(#SVGID_182_);fill:url(#SVGID_183_);}
	.st75{clip-path:url(#SVGID_185_);fill:url(#SVGID_186_);}
	.st76{clip-path:url(#SVGID_188_);fill:url(#SVGID_189_);}
	.st77{clip-path:url(#SVGID_191_);fill:url(#SVGID_192_);}
	.st78{clip-path:url(#SVGID_194_);fill:url(#SVGID_195_);}
	.st79{clip-path:url(#SVGID_197_);fill:#A598F4;}
	.st80{clip-path:url(#SVGID_199_);fill:url(#SVGID_200_);}
	.st81{clip-path:url(#SVGID_202_);fill:url(#SVGID_203_);}
	.st82{clip-path:url(#SVGID_205_);fill:url(#SVGID_206_);}
	.st83{clip-path:url(#SVGID_208_);fill:url(#SVGID_209_);}
	.st84{clip-path:url(#SVGID_211_);fill:url(#SVGID_212_);}
	.st85{clip-path:url(#SVGID_214_);fill:url(#SVGID_215_);}
	.st86{clip-path:url(#SVGID_217_);fill:url(#SVGID_218_);}
	.st87{clip-path:url(#SVGID_220_);fill:url(#SVGID_221_);}
	.st88{clip-path:url(#SVGID_223_);fill:url(#SVGID_224_);}
	.st89{clip-path:url(#SVGID_226_);fill:url(#SVGID_227_);}
	.st90{clip-path:url(#SVGID_229_);fill:url(#SVGID_230_);}
	.st91{clip-path:url(#SVGID_232_);fill:url(#SVGID_233_);}
	.st92{clip-path:url(#SVGID_235_);fill:url(#SVGID_236_);}
	.st93{clip-path:url(#SVGID_238_);fill:url(#SVGID_239_);}
	.st94{clip-path:url(#SVGID_241_);fill:url(#SVGID_242_);}
	.st95{clip-path:url(#SVGID_244_);fill:url(#SVGID_245_);}
	.st96{clip-path:url(#SVGID_247_);fill:url(#SVGID_248_);}
</style>
<g>
	<defs>
		<rect id="SVGID_1_" width="1080" height="757"/>
	</defs>
	<clipPath id="SVGID_2_">
		<use xlink:href="#SVGID_1_"  style="overflow:visible;"/>
	</clipPath>
	<g class="st0">
		<defs>
			<rect id="SVGID_3_" width="1080" height="757"/>
		</defs>
		<clipPath id="SVGID_4_">
			<use xlink:href="#SVGID_3_"  style="overflow:visible;"/>
		</clipPath>
		<path class="st1" d="M380.8,128.3c-20.9,29.3,2.7,77.3-28,99.2c-30,21.3-66.1-14.5-94.4,3.8c-41.9,27.1-35.6,153.3,24.4,232.3
			c18,23.8,33.2,33.1,39.7,59.8c13.9,57.4-37.5,90.9-28.1,119.3c21.2,64,357.1,121,494.2-69.1c64-88.8,74.8-217.8,19.5-316.5
			C708.1,78.6,427.7,62.6,380.8,128.3"/>
	</g>
	<g class="st0">
		<defs>
			<path id="SVGID_5_" d="M715,283.4c-8.1,6.1-14.6,3.9-21.9,1.8c-7.6-2.2-16.2-4.5-28.6,2.5c-21.3,12-24.2,52.6-29.3,73.1
				c-19.2,76.8-82,55.4-92.1,116c-3.7,22.3-5.8,64.4-29.2,70.4c-23.4,6-20.3,49.6-20.3,49.6l6.8,4.4c3.7,2.3,13,7.3,16.4,7.8
				c15.8,2.7,22.5,6.4,38.7,6.5c0.5,0,0.9,0,1.3,0c1.1,0,2-0.1,3.2,0.2c9.8-9.4,21.2-24.2,17.7-42.7c-4.1-21.1,18-35.7,45.2-47.5
				c27.1-11.8,22-59.5,24.1-76.8c3-24.7,6-34.4,51.8-57.9c66.7-25.2,101.7-68.5,89-97.8c-7-16.2-20.4-23.3-35.3-23.3
				C740.1,269.7,726.7,274.6,715,283.4"/>
		</defs>
		<clipPath id="SVGID_6_">
			<use xlink:href="#SVGID_5_"  style="overflow:visible;"/>
		</clipPath>
		
			<linearGradient id="SVGID_7_" gradientUnits="userSpaceOnUse" x1="0" y1="756.9579" x2="1" y2="756.9579" gradientTransform="matrix(-312.3595 392.1216 -392.1216 -312.3595 297598.3438 236718.375)">
			<stop  offset="0" style="stop-color:#FF9085"/>
			<stop  offset="1" style="stop-color:#FB6FBB"/>
		</linearGradient>
		<polygon class="st2" points="610.8,118.6 321.9,481.4 680.1,766.7 969.1,404 		"/>
	</g>
	<g class="st0">
		<defs>
			<path id="SVGID_8_" d="M715,283.4c-8.1,6.1-14.6,3.9-21.9,1.8c-7.6-2.2-16.2-4.5-28.6,2.5c-21.3,12-24.2,52.6-29.3,73.1
				c-19.2,76.8-82,55.4-92.1,116c-3.7,22.3-5.8,64.4-29.2,70.4c-23.4,6-19.4,51.4-19.4,51.4l52.2,28.2c0,0,37.2-21.6,31-53.8
				c-4.1-21.1,18-35.7,45.2-47.5c27.1-11.8,22-59.5,24.1-76.8c3-24.7,6-34.4,51.8-57.9c66.7-25.2,101.7-68.5,89-97.8
				c-7-16.2-20.4-23.3-35.3-23.3C740.1,269.7,726.7,274.6,715,283.4"/>
		</defs>
		<clipPath id="SVGID_9_">
			<use xlink:href="#SVGID_8_"  style="overflow:visible;"/>
		</clipPath>
		<g class="st3">
			<g>
				<defs>
					<rect id="SVGID_10_" x="506.6" y="266.2" width="306.2" height="345.4"/>
				</defs>
				<clipPath id="SVGID_11_">
					<use xlink:href="#SVGID_10_"  style="overflow:visible;"/>
				</clipPath>
				<path class="st4" d="M524.7,611.6l-1.1-0.4c2.5-6.5,5.1-13.1,7.8-19.5c19.6-47.5,43-91.4,69.4-130.5
					c22.4-33.2,47.3-63.4,74.1-89.8c21.5-21.2,44.3-40.2,67.7-56.2c16.5-11.3,33.1-21.1,49.4-29.1c2.8-1.4,5.8-2.7,8.7-3.9
					c3.8-1.6,7.8-3.3,11.5-5.3l0.6,1c-3.7,2-7.7,3.7-11.6,5.4c-2.9,1.2-5.8,2.5-8.7,3.9c-16.3,8-32.9,17.7-49.3,29
					c-23.4,16-46.1,34.9-67.6,56.1c-26.7,26.4-51.5,56.5-73.9,89.6c-26.4,39.1-49.7,82.9-69.3,130.3
					C529.8,598.5,527.2,605.1,524.7,611.6"/>
				<path class="st4" d="M644.5,405.7l-0.9-0.7c31.9-39.2,34-125.8,34-126.6l1.2,0C678.7,279.2,676.6,366.2,644.5,405.7"/>
				<path class="st4" d="M565,523.2l-1-0.6c18.5-29.2,84.2-38.9,84.9-39l0.2,1.2C648.4,484.8,583.2,494.5,565,523.2"/>
				<path class="st4" d="M555.9,540.6l-1.1-0.4c8.5-20.9,9-53.9,1.4-93.1c-0.4-2-0.4-2-0.3-2.2l1.1,0.4l-0.5-0.2l0.6,0
					c0,0.1,0.2,0.9,0.3,1.7C565,486.3,564.5,519.5,555.9,540.6"/>
				<path class="st4" d="M529.4,599.8l-0.9-0.7c15.6-19.4,52.5-19.4,52.8-19.4l0,1.2C581,580.8,544.7,580.9,529.4,599.8"/>
				<path class="st4" d="M522.9,611.3c0.4-20-4.9-40.9-16.3-63.6l1.1-0.5c11.5,22.9,16.8,43.9,16.4,64.2L522.9,611.3z"/>
				<path class="st4" d="M729.6,325.8l-0.9-0.8c18.9-20.8,34-47.1,38.9-55.7c1.2-2.1,1.6-2.8,1.8-3.1l0.9,0.8
					c-0.1,0.2-0.8,1.4-1.7,2.9C763.8,278.5,748.6,304.9,729.6,325.8"/>
				<path class="st4" d="M693.8,355.1l-0.6-1c22.7-13.4,73.8-0.1,75.9,0.5l-0.3,1.1C768.4,355.5,716.1,341.9,693.8,355.1"/>
			</g>
		</g>
	</g>
	<g class="st0">
		<defs>
			<path id="SVGID_12_" d="M709.8,389.9c-42.9,4-61.8,44.9-76.7,65.9c-0.1,0.2-0.3,0.4-0.4,0.6c-0.1,0.1-0.2,0.2-0.2,0.3
				c-0.1,0.2-0.2,0.3-0.4,0.5c-16.9,23-54.3,3-60.1,40.2c-4.9,31.8,3.9,62.6-22,70.7c-20.6,6.4-33.4,19.5-33.4,43.7
				c0,6.2,0.9,13.2,2.7,21l46.5,28.4c0,0,22.2-17.7,22.2-40.6c0-0.6,0-1.1,0-1.7c-0.1-1.3-0.1-2.5-0.1-3.7
				c0-44.7,40.9-43.5,58.4-45.5c0,0,0.1,0,0.1,0c0,0,0,0,0,0c0,0,0.1,0,0.1,0c6.9-0.8,13.5-2.4,19.2-4.7c9.4-3.9,15.9-10,17.1-18.3
				c0.5-5.7-2-12.4-8.5-20.1c-15.8-18.7,8.5-37.4,40.2-45.4c10.9-2.9,23-4.4,35.2-4.1c0.1,0,0.1,0,0.2,0c22,0.6,39.9-18.8,39.9-39.5
				c0-20.2-16.9-41.6-63.2-47.1c-3.4-0.4-6.7-0.6-9.9-0.6C714.4,389.6,712.1,389.7,709.8,389.9"/>
		</defs>
		<clipPath id="SVGID_13_">
			<use xlink:href="#SVGID_12_"  style="overflow:visible;"/>
		</clipPath>
		
			<linearGradient id="SVGID_14_" gradientUnits="userSpaceOnUse" x1="0" y1="757.0485" x2="1" y2="757.0485" gradientTransform="matrix(-253.0186 206.7311 206.7311 253.0186 -155728.8594 -191122.7656)">
			<stop  offset="0" style="stop-color:#E38DDD"/>
			<stop  offset="3.597120e-03" style="stop-color:#E38DDD"/>
			<stop  offset="1" style="stop-color:#9571F6"/>
		</linearGradient>
		<polygon class="st5" points="922.9,552.5 625.9,795.1 383.5,498.3 680.4,255.7 		"/>
	</g>
	<g class="st0">
		<defs>
			<path id="SVGID_15_" d="M632,457.3c-16.9,23-54.3,3-60.1,40.2c-4.9,31.8,3.9,62.6-22,70.7c-26,8.1-39.5,26.7-30.7,64.6l46.5,28.4
				c0,0,23.3-18.5,22.2-42.3c-2.3-48.5,40.4-47.2,58.3-49.3c27.1-3.2,49.6-17.8,28.1-43.2c-21.5-25.4,31.1-50.7,75.5-49.5
				c43.5,1.2,70.7-75.5-23.3-86.7c-3.4-0.4-6.7-0.6-9.9-0.6C667.9,389.6,648,435.7,632,457.3"/>
		</defs>
		<clipPath id="SVGID_16_">
			<use xlink:href="#SVGID_15_"  style="overflow:visible;"/>
		</clipPath>
		<g class="st6">
			<g>
				<defs>
					<rect id="SVGID_17_" x="536.7" y="384.2" width="266.6" height="265.6"/>
				</defs>
				<clipPath id="SVGID_18_">
					<use xlink:href="#SVGID_17_"  style="overflow:visible;"/>
				</clipPath>
				<path class="st7" d="M536.7,649.4l1.1,0.4c0.3-0.7,26-67.2,71.5-125.4c41.8-53.6,109.4-111,193.7-79.8l0.4-1.1
					c-37.5-13.9-74.9-11.7-111.1,6.5c-28.9,14.6-57.2,39.3-83.9,73.6C562.8,582.1,537,648.8,536.7,649.4"/>
				<path class="st7" d="M677.5,458.4l1,0.5c15.7-34.9,56.2-73.4,56.6-73.8l-0.8-0.8C733.9,384.6,693.3,423.3,677.5,458.4"/>
				<path class="st7" d="M701.9,446.9c45.6-0.4,70.5,28.3,70.7,28.6l0.9-0.7c-0.2-0.3-25.4-29.4-71.6-29L701.9,446.9z"/>
				<path class="st7" d="M581.6,564.1c39.2-39.6,109.1-12.6,109.7-12.3l0.6-1c-0.6-0.4-71.6-27.5-111.1,12.4L581.6,564.1z"/>
				<path class="st7" d="M593.3,544.3l1.1,0.4c11.9-33.5-7.8-73.6-8-74l-1,0.5C585.5,471.6,605.1,511.3,593.3,544.3"/>
				<path class="st7" d="M542.1,639.5c12.4-17.2,46.8-15.7,47.2-15.7l0.1-1.1c-1.4-0.1-35.4-1.5-48.2,16.2L542.1,639.5z"/>
				<path class="st7" d="M548,623.6l1.1,0.4c6.2-15.6-5.5-44.2-9.4-53.6c-0.5-1.3-1-2.5-1.1-2.7l-1.1,0.2c0.1,0.3,0.4,1.1,1.1,2.9
					C542.4,580.2,554,608.5,548,623.6"/>
			</g>
		</g>
	</g>
	<g class="st0">
		<defs>
			<path id="SVGID_19_" d="M714.8,511.9c-10.7,3.9-22,7.8-32.6,4.7c-22.6-6.5-39.9,6.3-46.8,31.4c-6.9,25-20.8,22-41.8,24
				c-25.2,2.4-19.7,32.7-17,45.6c2.1,10.5-4.1,37.4-20.4,38.7c-10.5,0.8-11,8.9-10,17.2c3.2,0.8,6.4,1.6,9.7,2.5
				c16.7,3,31.7,2.6,45,0.1c0.2,0,0.4-0.1,0.7-0.1c1.6-4.2,4.2-8.2,8.4-11.3c12.5-8.9,49.5,5.4,54-23.2c3.4-21-17.4-41.3,28-48.4
				c45.5-7.1,88.8-56.1,58.4-82.4c-3.8-3.3-8.1-4.5-12.7-4.5C730.6,506.1,722.8,509,714.8,511.9"/>
		</defs>
		<clipPath id="SVGID_20_">
			<use xlink:href="#SVGID_19_"  style="overflow:visible;"/>
		</clipPath>
		
			<linearGradient id="SVGID_21_" gradientUnits="userSpaceOnUse" x1="0" y1="757.025" x2="1" y2="757.025" gradientTransform="matrix(-277.4742 398.8689 398.8689 277.4742 -301206.7813 -209583.2188)">
			<stop  offset="0" style="stop-color:#FF9085"/>
			<stop  offset="1" style="stop-color:#FB6FBB"/>
		</linearGradient>
		<polygon class="st8" points="861.7,562.5 703.8,789.4 464,622.6 621.9,395.6 		"/>
	</g>
	<g class="st0">
		<defs>
			<path id="SVGID_22_" d="M714.8,511.9c-10.7,3.9-22,7.8-32.6,4.7c-22.6-6.5-39.9,6.3-46.8,31.4c-6.9,25-20.8,22-41.8,24
				c-25.2,2.4-19.7,32.7-17,45.6c2.1,10.5-4.1,37.4-20.4,38.7c-11.8,0.9-10.9,15.5-9.5,23.7l52.6,11.8c-0.2-7.8,0.9-20.1,10.7-27.1
				c12.5-8.9,49.5,5.4,54-23.2c3.4-21-17.4-41.3,28-48.4c45.5-7.1,88.8-56.1,58.4-82.4c-3.8-3.3-8.1-4.5-12.7-4.5
				C730.6,506.1,722.8,509,714.8,511.9"/>
		</defs>
		<clipPath id="SVGID_23_">
			<use xlink:href="#SVGID_22_"  style="overflow:visible;"/>
		</clipPath>
		<g class="st9">
			<g>
				<defs>
					<rect id="SVGID_24_" x="575.2" y="511" width="191.2" height="166.9"/>
				</defs>
				<clipPath id="SVGID_25_">
					<use xlink:href="#SVGID_24_"  style="overflow:visible;"/>
				</clipPath>
				<path class="st10" d="M576.2,677.9l-1.1-0.5c34.5-78.1,106.7-139.1,188.4-159.2l0.3,1.1C682.4,539.3,610.5,600.1,576.2,677.9"/>
				<path class="st10" d="M598.7,636.9l-1.1-0.3c7.2-32.8-15.2-64.5-15.4-64.8l0.9-0.7C583.3,571.5,606,603.6,598.7,636.9"/>
				<path class="st10" d="M583,663.7l-0.9-0.8c22.2-25.8,83.5-16.6,84.1-16.5l-0.2,1.2C665.4,647.5,604.7,638.4,583,663.7"/>
				<path class="st10" d="M654.8,574.8l-0.9-0.7c15.8-21.9,8.2-62.5,8.1-63l1.1-0.2C663.2,511.4,670.9,552.6,654.8,574.8"/>
				<path class="st10" d="M699.6,544.4l-0.4-1.1c29-10.1,66.8,7.3,67.1,7.5l-0.5,1.1C765.5,551.6,728.2,534.4,699.6,544.4"/>
			</g>
		</g>
	</g>
	<g class="st0">
		<defs>
			<rect id="SVGID_26_" width="1080" height="757"/>
		</defs>
		<clipPath id="SVGID_27_">
			<use xlink:href="#SVGID_26_"  style="overflow:visible;"/>
		</clipPath>
		<g class="st11">
			<g>
				<defs>
					<rect id="SVGID_28_" x="305.2" y="124.1" width="386.3" height="465.5"/>
				</defs>
				<clipPath id="SVGID_29_">
					<use xlink:href="#SVGID_28_"  style="overflow:visible;"/>
				</clipPath>
				<path class="st12" d="M691.5,308c0-101.6-86.5-183.9-193.1-183.9S305.2,206.4,305.2,308c0,61.6,31.9,116.2,80.7,149.6
					c20.7,14.2,33.3,37.5,33.3,62.6v14.1c0,30.6,24.8,55.4,55.4,55.4H522c30.6,0,55.4-24.8,55.4-55.4v-14.1
					c0-25.1,12.6-48.4,33.3-62.6C659.6,424.2,691.5,369.6,691.5,308"/>
			</g>
		</g>
	</g>
	<g class="st0">
		<defs>
			<path id="SVGID_30_" d="M455.5,671.6c0,12.5,19.2,22.7,42.8,22.7c23.7,0,42.8-10.2,42.8-22.7c0-12.5-19.2-22.7-42.8-22.7
				C474.6,648.9,455.5,659.1,455.5,671.6"/>
		</defs>
		<clipPath id="SVGID_31_">
			<use xlink:href="#SVGID_30_"  style="overflow:visible;"/>
		</clipPath>
		
			<linearGradient id="SVGID_32_" gradientUnits="userSpaceOnUse" x1="0" y1="757" x2="1" y2="757" gradientTransform="matrix(3.4303 -27.4421 -27.4421 -3.4303 21267.9863 3300.4722)">
			<stop  offset="0" style="stop-color:#26264F"/>
			<stop  offset="3.597000e-03" style="stop-color:#26264F"/>
			<stop  offset="1" style="stop-color:#444B8C"/>
		</linearGradient>
		<polygon class="st13" points="449.9,693.6 456.8,638.3 546.7,649.6 539.8,704.8 		"/>
	</g>
	<g class="st0">
		<defs>
			<path id="SVGID_33_" d="M441.4,654.2c0,7.8,4.5,15,11.5,18.4c9.8,4.7,26.1,9.8,49.9,9.2c19.3-0.5,31.8-3.6,39.8-6.9
				c7.7-3.2,12.7-10.8,12.7-19.2v-12.8l-113.8-11.9V654.2z"/>
		</defs>
		<clipPath id="SVGID_34_">
			<use xlink:href="#SVGID_33_"  style="overflow:visible;"/>
		</clipPath>
		
			<linearGradient id="SVGID_35_" gradientUnits="userSpaceOnUse" x1="0" y1="756.9269" x2="1" y2="756.9269" gradientTransform="matrix(34.3027 -61.7449 -61.7449 -34.3027 47221.1016 26645.9336)">
			<stop  offset="0" style="stop-color:#26264F"/>
			<stop  offset="3.597000e-03" style="stop-color:#26264F"/>
			<stop  offset="1" style="stop-color:#444B8C"/>
		</linearGradient>
		<polygon class="st14" points="419.6,670.3 468.2,582.7 577,643.2 528.4,730.8 		"/>
	</g>
	<g class="st0">
		<defs>
			<rect id="SVGID_36_" width="1080" height="757"/>
		</defs>
		<clipPath id="SVGID_37_">
			<use xlink:href="#SVGID_36_"  style="overflow:visible;"/>
		</clipPath>
		<g class="st15">
			<g>
				<defs>
					<rect id="SVGID_38_" x="441.4" y="631.1" width="113.8" height="36.9"/>
				</defs>
				<clipPath id="SVGID_39_">
					<use xlink:href="#SVGID_38_"  style="overflow:visible;"/>
				</clipPath>
				<g class="st16">
					<defs>
						<path id="SVGID_40_" d="M441.4,651.3c1.7,1.7,3.7,3.1,6,4.2c11,5.3,83.2,17,100.6,10.5c2.3-0.8,4.3-2,6.1-3.4
							c0.8-2.2,1.2-4.5,1.2-6.9v-12.8l-113.8-11.9V651.3z"/>
					</defs>
					<clipPath id="SVGID_41_">
						<use xlink:href="#SVGID_40_"  style="overflow:visible;"/>
					</clipPath>
					
						<linearGradient id="SVGID_42_" gradientUnits="userSpaceOnUse" x1="1.072210e-06" y1="756.9797" x2="1" y2="756.9797" gradientTransform="matrix(113.8493 0 0 -113.8493 441.3829 86833.4531)">
						<stop  offset="0" style="stop-color:#26264F"/>
						<stop  offset="3.597000e-03" style="stop-color:#26264F"/>
						<stop  offset="1" style="stop-color:#444B8C"/>
					</linearGradient>
					<rect x="441.4" y="631.1" class="st17" width="113.8" height="41.5"/>
				</g>
			</g>
		</g>
	</g>
	<g class="st0">
		<defs>
			<path id="SVGID_43_" d="M434.4,626.1v0.7c0,8.8,5,16.8,12.9,20.6c11,5.3,83.2,17,100.6,10.5c8.8-3.3,14.2-10.8,14.2-20.2v-0.5
				c0-5.6-4.2-10.2-9.7-10.8l-106-11c-0.4,0-0.8-0.1-1.1-0.1C439.4,615.2,434.4,620,434.4,626.1"/>
		</defs>
		<clipPath id="SVGID_44_">
			<use xlink:href="#SVGID_43_"  style="overflow:visible;"/>
		</clipPath>
		
			<linearGradient id="SVGID_45_" gradientUnits="userSpaceOnUse" x1="0" y1="756.959" x2="1" y2="756.959" gradientTransform="matrix(33.874 -65.1752 -65.1752 -33.874 49821.0859 26304.5176)">
			<stop  offset="0" style="stop-color:#26264F"/>
			<stop  offset="3.597000e-03" style="stop-color:#26264F"/>
			<stop  offset="1" style="stop-color:#444B8C"/>
		</linearGradient>
		<polygon class="st18" points="414.3,653.9 461.6,563 582.3,625.7 535,716.7 		"/>
	</g>
	<g class="st0">
		<defs>
			<rect id="SVGID_46_" width="1080" height="757"/>
		</defs>
		<clipPath id="SVGID_47_">
			<use xlink:href="#SVGID_46_"  style="overflow:visible;"/>
		</clipPath>
		<g class="st19">
			<g>
				<defs>
					<rect id="SVGID_48_" x="436.3" y="615.2" width="124" height="30.1"/>
				</defs>
				<clipPath id="SVGID_49_">
					<use xlink:href="#SVGID_48_"  style="overflow:visible;"/>
				</clipPath>
				<g class="st20">
					<defs>
						<path id="SVGID_50_" d="M552.4,626.3l-106-11c-4.2-0.4-8,1.6-10.2,4.8c2.1,5,6,9.2,11.1,11.6c11,5.3,86.3,18.5,100.6,11.8
							c5.6-2.6,10-7.1,12.3-12.5C558.5,628.5,555.7,626.7,552.4,626.3"/>
					</defs>
					<clipPath id="SVGID_51_">
						<use xlink:href="#SVGID_50_"  style="overflow:visible;"/>
					</clipPath>
					
						<linearGradient id="SVGID_52_" gradientUnits="userSpaceOnUse" x1="2.461193e-07" y1="756.9818" x2="1" y2="756.9818" gradientTransform="matrix(123.9946 0 0 -123.9946 436.282 94494.2422)">
						<stop  offset="0" style="stop-color:#26264F"/>
						<stop  offset="3.597000e-03" style="stop-color:#26264F"/>
						<stop  offset="1" style="stop-color:#444B8C"/>
					</linearGradient>
					<rect x="436.3" y="614.9" class="st21" width="124" height="35.4"/>
				</g>
			</g>
		</g>
	</g>
	<g class="st0">
		<defs>
			<path id="SVGID_53_" d="M442.3,577.8c-4.3,0-7.8,3.5-7.8,7.8v18.1c0,8.8,5,16.8,12.9,20.6c11,5.3,86.3,18.5,100.6,11.8
				c8.5-4,14.2-12.1,14.2-21.5v-29.1c0-4.3-3.5-7.8-7.8-7.8H442.3z"/>
		</defs>
		<clipPath id="SVGID_54_">
			<use xlink:href="#SVGID_53_"  style="overflow:visible;"/>
		</clipPath>
		
			<linearGradient id="SVGID_55_" gradientUnits="userSpaceOnUse" x1="-8.362618e-06" y1="756.9809" x2="1" y2="756.9809" gradientTransform="matrix(127.725 0 0 -127.725 434.445 97295.7109)">
			<stop  offset="0" style="stop-color:#26264F"/>
			<stop  offset="3.597000e-03" style="stop-color:#26264F"/>
			<stop  offset="1" style="stop-color:#444B8C"/>
		</linearGradient>
		<rect x="434.4" y="577.8" class="st22" width="127.7" height="65.1"/>
	</g>
	<g class="st0">
		<defs>
			<path id="SVGID_56_" d="M436,583.4c0,8.1,27.9,14.7,62.3,14.7c34.4,0,62.3-6.6,62.3-14.7c0-8.1-27.9-14.7-62.3-14.7
				C463.9,568.7,436,575.3,436,583.4"/>
		</defs>
		<clipPath id="SVGID_57_">
			<use xlink:href="#SVGID_56_"  style="overflow:visible;"/>
		</clipPath>
		
			<linearGradient id="SVGID_58_" gradientUnits="userSpaceOnUse" x1="0" y1="757" x2="1" y2="757" gradientTransform="matrix(12.5777 -58.8863 -58.8863 -12.5777 45072.0508 10119.5801)">
			<stop  offset="0" style="stop-color:#26264F"/>
			<stop  offset="3.597000e-03" style="stop-color:#26264F"/>
			<stop  offset="1" style="stop-color:#444B8C"/>
		</linearGradient>
		<polygon class="st23" points="430,596.9 441.5,543.2 566.6,570 555.2,623.6 		"/>
	</g>
	<g class="st0">
		<defs>
			<path id="SVGID_59_" d="M305.2,308c0,61.6,31.9,116.2,80.7,149.6c20.7,14.2,33.3,37.5,33.3,62.6v14.1c0,30.6,24.8,55.4,55.4,55.4
				H522c30.6,0,55.4-24.8,55.4-55.4v-14.1c0-25.1,12.6-48.4,33.3-62.6c48.9-33.4,80.7-87.9,80.7-149.6
				c0-101.6-86.5-183.9-193.1-183.9S305.2,206.4,305.2,308"/>
		</defs>
		<clipPath id="SVGID_60_">
			<use xlink:href="#SVGID_59_"  style="overflow:visible;"/>
		</clipPath>
		
			<linearGradient id="SVGID_61_" gradientUnits="userSpaceOnUse" x1="0" y1="756.9502" x2="1" y2="756.9502" gradientTransform="matrix(249.5389 396.1751 396.1751 -249.5389 -299433.5938 189170.625)">
			<stop  offset="0" style="stop-color:#FCB148"/>
			<stop  offset="5.215653e-02" style="stop-color:#FDBA46"/>
			<stop  offset="0.1432" style="stop-color:#FFC244"/>
			<stop  offset="0.3183" style="stop-color:#FFC444"/>
			<stop  offset="0.4843" style="stop-color:#FDB946"/>
			<stop  offset="0.7729" style="stop-color:#F99D4D"/>
			<stop  offset="0.8658" style="stop-color:#F8924F"/>
			<stop  offset="1" style="stop-color:#F8924F"/>
		</linearGradient>
		<polygon class="st24" points="581.7,-50.1 901.4,457.4 414.9,763.8 95.2,256.3 		"/>
	</g>
	<g class="st0">
		<defs>
			<rect id="SVGID_62_" width="1080" height="757"/>
		</defs>
		<clipPath id="SVGID_63_">
			<use xlink:href="#SVGID_62_"  style="overflow:visible;"/>
		</clipPath>
		<g class="st25">
			<g>
				<defs>
					<rect id="SVGID_64_" x="452.7" y="561" width="91.1" height="21.5"/>
				</defs>
				<clipPath id="SVGID_65_">
					<use xlink:href="#SVGID_64_"  style="overflow:visible;"/>
				</clipPath>
				<path class="st26" d="M543.9,571.8c0,6-20.4,10.8-45.6,10.8c-25.2,0-45.6-4.8-45.6-10.8c0-6,20.4-10.8,45.6-10.8
					C523.5,561,543.9,565.9,543.9,571.8"/>
			</g>
		</g>
	</g>
	<g class="st0">
		<defs>
			<path id="SVGID_66_" d="M452.6,312.4c-1.4,0.2-2.5,1.5-2.3,2.9l33.5,260.7c0.2,1.3,1.3,2.3,2.6,2.3c0.1,0,0.2,0,0.3,0
				c1.4-0.2,2.5-1.5,2.3-2.9l-33.5-260.7c-0.2-1.3-1.3-2.3-2.6-2.3C452.8,312.4,452.7,312.4,452.6,312.4"/>
		</defs>
		<clipPath id="SVGID_67_">
			<use xlink:href="#SVGID_66_"  style="overflow:visible;"/>
		</clipPath>
		
			<linearGradient id="SVGID_68_" gradientUnits="userSpaceOnUse" x1="0" y1="757" x2="1" y2="757" gradientTransform="matrix(50.8824 -148.645 -148.645 -50.8824 112949.6641 39092.7305)">
			<stop  offset="0" style="stop-color:#EBEFF2"/>
			<stop  offset="0.494" style="stop-color:#EBEFF2"/>
			<stop  offset="1" style="stop-color:#FFFFFF"/>
		</linearGradient>
		<polygon class="st27" points="368.6,550.5 454.2,300.4 570.7,340.3 485.1,590.4 		"/>
	</g>
	<g class="st0">
		<defs>
			<path id="SVGID_69_" d="M538.2,314.7l-33.5,260.7c-0.2,1.4,0.8,2.8,2.3,2.9c0.1,0,0.2,0,0.3,0c1.3,0,2.4-1,2.6-2.3l33.5-260.7
				c0.2-1.4-0.8-2.8-2.3-2.9c-0.1,0-0.2,0-0.4,0C539.5,312.4,538.3,313.4,538.2,314.7"/>
		</defs>
		<clipPath id="SVGID_70_">
			<use xlink:href="#SVGID_69_"  style="overflow:visible;"/>
		</clipPath>
		
			<linearGradient id="SVGID_71_" gradientUnits="userSpaceOnUse" x1="0" y1="757" x2="1" y2="757" gradientTransform="matrix(50.8825 -148.6451 -148.6451 -50.8825 112998.375 39109.4063)">
			<stop  offset="0" style="stop-color:#EBEFF2"/>
			<stop  offset="0.494" style="stop-color:#EBEFF2"/>
			<stop  offset="1" style="stop-color:#FFFFFF"/>
		</linearGradient>
		<polygon class="st28" points="422.9,550.5 508.6,300.4 625.1,340.3 539.5,590.4 		"/>
	</g>
	<g class="st0">
		<defs>
			<path id="SVGID_72_" d="M469.6,287.8c-2,0.1-3.7,1.1-4.7,2.8l-9.7,16.7c-0.7,1.3-0.3,2.9,1,3.6c1.3,0.7,2.9,0.3,3.6-1l9.7-16.7
				c0.1-0.1,0.2-0.2,0.4-0.2c0.1,0,0.3,0.1,0.4,0.2l10.6,15.2c1.1,1.5,2.8,2.5,4.7,2.5h0c1.9,0,3.6-0.9,4.7-2.5l7.4-10.7
				c0.1-0.1,0.2-0.2,0.4-0.2c0.1,0,0.3,0.1,0.4,0.2l8.4,12.6c1.1,1.6,2.9,2.6,4.9,2.5c2,0,3.7-1.1,4.7-2.8l6.1-10.2
				c0-0.1,0.1-0.2,0.4-0.2c0.1,0,0.3,0.1,0.4,0.2l9.3,14c0.5,0.8,1.3,1.2,2.2,1.2c0.5,0,1-0.1,1.4-0.4c1.2-0.8,1.5-2.4,0.7-3.6
				l-9.3-14c-1.1-1.7-2.9-2.6-4.9-2.6c-2,0-3.7,1.1-4.8,2.8l-6.1,10.2c0,0.1-0.1,0.2-0.4,0.2c-0.1,0.1-0.3-0.1-0.4-0.2l-8.4-12.6
				c-1.1-1.6-2.8-2.5-4.7-2.6c-1.9,0-3.6,0.9-4.7,2.5l-7.4,10.7c-0.1,0.1-0.2,0.2-0.3,0.2c-0.1,0-0.3-0.1-0.4-0.2l-10.6-15.2
				c-1.1-1.5-2.8-2.5-4.6-2.5C469.8,287.8,469.7,287.8,469.6,287.8"/>
		</defs>
		<clipPath id="SVGID_73_">
			<use xlink:href="#SVGID_72_"  style="overflow:visible;"/>
		</clipPath>
		
			<linearGradient id="SVGID_74_" gradientUnits="userSpaceOnUse" x1="0" y1="757.0189" x2="1" y2="757.0189" gradientTransform="matrix(50.8825 -148.6451 -148.6451 -50.8825 112932.0234 39086.6953)">
			<stop  offset="0" style="stop-color:#EBEFF2"/>
			<stop  offset="0.494" style="stop-color:#EBEFF2"/>
			<stop  offset="1" style="stop-color:#FFFFFF"/>
		</linearGradient>
		<polygon class="st29" points="446.1,312.3 463.2,262.3 545.9,290.7 528.8,340.6 		"/>
	</g>
	<g class="st0">
		<defs>
			<rect id="SVGID_75_" width="1080" height="757"/>
		</defs>
		<clipPath id="SVGID_76_">
			<use xlink:href="#SVGID_75_"  style="overflow:visible;"/>
		</clipPath>
		<g class="st30">
			<g>
				<defs>
					<rect id="SVGID_77_" x="305.2" y="154" width="319.8" height="435.6"/>
				</defs>
				<clipPath id="SVGID_78_">
					<use xlink:href="#SVGID_77_"  style="overflow:visible;"/>
				</clipPath>
				<g class="st31">
					<defs>
						<path id="SVGID_79_" d="M501.8,453c4.1-70.9,123.6-87.5,123.1-150.8c-0.3-39-47.8-67.9-57.9-73.7
							c-74.7-42.7-166.7,6.6-185.7-28.3c-4.7-8.7-2.5-18.2-1.2-23.6c1.9-8.1,6.2-15.7,12.6-22.7c-52.7,32.8-87.5,89.5-87.5,154
							c0,61.6,31.9,116.2,80.7,149.6c20.7,14.2,33.3,37.5,33.3,62.6v14.1c0,30.6,24.8,55.4,55.4,55.4H522
							c30.6,0,55.4-24.8,55.4-55.4V523c-6.5,5-14,8.5-22.3,8.4C526.6,531.2,499.8,488.3,501.8,453"/>
					</defs>
					<clipPath id="SVGID_80_">
						<use xlink:href="#SVGID_79_"  style="overflow:visible;"/>
					</clipPath>
					
						<linearGradient id="SVGID_81_" gradientUnits="userSpaceOnUse" x1="0" y1="757.0211" x2="1" y2="757.0211" gradientTransform="matrix(-49.739 409.9173 409.9173 49.739 -309827.625 -37472.0469)">
						<stop  offset="0" style="stop-color:#FCB148"/>
						<stop  offset="5.215653e-02" style="stop-color:#FDBA46"/>
						<stop  offset="0.1432" style="stop-color:#FFC244"/>
						<stop  offset="0.3183" style="stop-color:#FFC444"/>
						<stop  offset="0.4843" style="stop-color:#FDB946"/>
						<stop  offset="0.7729" style="stop-color:#F99D4D"/>
						<stop  offset="0.8658" style="stop-color:#F8924F"/>
						<stop  offset="1" style="stop-color:#F8924F"/>
					</linearGradient>
					<polygon class="st32" points="677.5,160.3 620.8,627.9 253.1,583.3 309.8,115.7 					"/>
				</g>
			</g>
		</g>
		<path class="st33" d="M522,590.3h-47.5c-30.9,0-56.1-25.2-56.1-56.1v-14.1c0-24.7-12.3-47.9-33-62c-24.5-16.8-44.9-39-58.9-64.4
			c-14.5-26.2-22.1-55.9-22.1-85.7c0-49.3,20.2-95.7,56.8-130.6c36.6-34.9,85.3-54.1,137.1-54.1c51.8,0,100.5,19.2,137.1,54.1
			c36.6,34.9,56.8,81.3,56.8,130.6c0,29.8-7.7,59.5-22.1,85.7c-14,25.4-34.4,47.7-58.9,64.4c-20.7,14.1-33,37.3-33,62v14.1
			C578.2,565.2,553,590.3,522,590.3 M498.3,124.8c-51.4,0-99.7,19.1-136.1,53.7c-36.3,34.6-56.3,80.6-56.3,129.5
			c0,29.6,7.6,59,21.9,85c13.9,25.2,34.1,47.3,58.5,63.9c21.1,14.4,33.6,38,33.6,63.2v14.1c0,30.1,24.5,54.6,54.6,54.6H522
			c30.1,0,54.6-24.5,54.6-54.6v-14.1c0-25.2,12.6-48.8,33.6-63.2c24.4-16.6,44.6-38.7,58.5-63.9c14.4-26,21.9-55.4,21.9-85
			c0-48.9-20-94.9-56.3-129.5C598,143.9,549.7,124.8,498.3,124.8"/>
		<g class="st34">
			<g>
				<defs>
					<rect id="SVGID_82_" x="335.2" y="154.9" width="332.4" height="320.6"/>
				</defs>
				<clipPath id="SVGID_83_">
					<use xlink:href="#SVGID_82_"  style="overflow:visible;"/>
				</clipPath>
				<path class="st35" d="M667.6,315.1c0,88.5-74.4,160.3-166.2,160.3s-166.2-71.8-166.2-160.3s74.4-160.3,166.2-160.3
					S667.6,226.6,667.6,315.1"/>
			</g>
		</g>
	</g>
	<g class="st0">
		<defs>
			<path id="SVGID_84_" d="M414.1,142.5c-1.2,15.7,0.7,28.5,3.6,38.9c15.8,55.9,65.9,55.5,106.5,129.1c31.4,57,15.7,83.2,48.1,119.7
				c10.8,12.2,23.5,21.5,36.8,28.6c0.5-0.4,1.1-0.8,1.7-1.2c48.9-33.4,80.7-87.9,80.7-149.6c0-2.7-0.1-5.3-0.2-8
				c-1.8-39-16.3-74.9-39.7-103.9c-0.1-0.2-0.3-0.4-0.4-0.5c0,0,0,0,0,0c-35.3-43.5-90.7-71.5-152.8-71.5
				C468.1,124.1,439.5,130.7,414.1,142.5"/>
		</defs>
		<clipPath id="SVGID_85_">
			<use xlink:href="#SVGID_84_"  style="overflow:visible;"/>
		</clipPath>
		
			<linearGradient id="SVGID_86_" gradientUnits="userSpaceOnUse" x1="0" y1="756.8765" x2="1" y2="756.8765" gradientTransform="matrix(142.7744 -306.7536 -306.7536 -142.7744 232650.1875 108518.3281)">
			<stop  offset="0" style="stop-color:#D8DEE8"/>
			<stop  offset="5.405410e-03" style="stop-color:#D8DEE8"/>
			<stop  offset="1" style="stop-color:#F4F7FA"/>
		</linearGradient>
		<polygon class="st36" points="284.8,399.1 462.4,17.5 819.5,183.7 641.8,565.3 		"/>
	</g>
	<g class="st0">
		<defs>
			<path id="SVGID_87_" d="M414.1,142.5c-1.2,15.7,0.7,28.5,3.6,38.9c15.8,55.9,65.9,55.5,106.5,129.1c31.4,57,15.7,83.2,48.1,119.7
				c10.8,12.2,23.5,21.5,36.8,28.6c0.5-0.4,1.1-0.8,1.6-1.2c48.9-33.4,80.7-87.9,80.7-149.6c0-101.6-86.5-183.9-193.1-183.9
				C468.1,124.1,439.5,130.7,414.1,142.5"/>
		</defs>
		<clipPath id="SVGID_88_">
			<use xlink:href="#SVGID_87_"  style="overflow:visible;"/>
		</clipPath>
		<g class="st37">
			<g>
				<defs>
					<rect id="SVGID_89_" x="493.5" y="269.7" width="296.9" height="346"/>
				</defs>
				<clipPath id="SVGID_90_">
					<use xlink:href="#SVGID_89_"  style="overflow:visible;"/>
				</clipPath>
				<g class="st38">
					<defs>
						<path id="SVGID_91_" d="M577.7,573c3.6,18.5-7.9,33.3-17.7,42.7c-1.7-0.4-2.8-0.2-4.6-0.2c-16.2-0.1-22.9-3.8-38.7-6.5
							c-3.4-0.6-12.7-5.5-16.4-7.8l-6.8-4.4c0,0-3.1-43.6,20.3-49.6c23.4-6,25.5-48.1,29.2-70.4c10.1-60.6,72.9-39.2,92.1-116
							c5.1-20.4,8-61.1,29.3-73.1c24.2-13.7,34,8.1,50.5-4.3c25.7-19.3,59.9-20.1,72.8,9.6c12.7,29.3-22.3,72.6-89,97.8
							c-45.8,23.5-48.8,33.2-51.8,57.9c-2.1,17.3,3,65-24.1,76.8C595.7,537.3,573.6,551.9,577.7,573"/>
					</defs>
					<clipPath id="SVGID_92_">
						<use xlink:href="#SVGID_91_"  style="overflow:visible;"/>
					</clipPath>
					
						<linearGradient id="SVGID_93_" gradientUnits="userSpaceOnUse" x1="0" y1="756.9619" x2="1" y2="756.9619" gradientTransform="matrix(-312.3595 392.1216 -392.1216 -312.3595 297598.3438 236718.375)">
						<stop  offset="0" style="stop-color:#FF9085"/>
						<stop  offset="1" style="stop-color:#FB6FBB"/>
					</linearGradient>
					<polygon class="st39" points="610.8,112.3 318.8,478.9 680.1,766.7 972.2,400.1 					"/>
				</g>
			</g>
		</g>
		<g class="st37">
			<g>
				<defs>
					<rect id="SVGID_94_" x="396" y="142.4" width="242.7" height="316.3"/>
				</defs>
				<clipPath id="SVGID_95_">
					<use xlink:href="#SVGID_94_"  style="overflow:visible;"/>
				</clipPath>
				<g class="st40">
					<defs>
						<path id="SVGID_96_" d="M414.1,142.5c18.4-0.2,43.7,2.6,61.7,19.7c22.5,21.4,12.2,44.7,27.6,76c26,52.7,78.4,33.7,114.4,88
							c32.7,49.4,20.6,112.2,6.9,121.9c-1.2,0.9-15.6,10.7-15.6,10.7L396,367L414.1,142.5z"/>
					</defs>
					<clipPath id="SVGID_97_">
						<use xlink:href="#SVGID_96_"  style="overflow:visible;"/>
					</clipPath>
					
						<linearGradient id="SVGID_98_" gradientUnits="userSpaceOnUse" x1="1.383166e-06" y1="757.0005" x2="1" y2="757.0005" gradientTransform="matrix(242.6993 0 0 -242.6993 395.9846 184023.9219)">
						<stop  offset="0" style="stop-color:#FCB148"/>
						<stop  offset="5.215653e-02" style="stop-color:#FDBA46"/>
						<stop  offset="0.1432" style="stop-color:#FFC244"/>
						<stop  offset="0.3183" style="stop-color:#FFC444"/>
						<stop  offset="0.4843" style="stop-color:#FDB946"/>
						<stop  offset="0.7729" style="stop-color:#F99D4D"/>
						<stop  offset="0.8658" style="stop-color:#F8924F"/>
						<stop  offset="1" style="stop-color:#F8924F"/>
					</linearGradient>
					<rect x="396" y="142.2" class="st41" width="254.5" height="316.5"/>
				</g>
			</g>
		</g>
		<path class="st42" d="M498.3,485c-49.6,0-96.3-18.4-131.3-51.8c-35.1-33.4-54.4-77.9-54.4-125.2s19.3-91.7,54.4-125.2
			c35.1-33.4,81.7-51.8,131.3-51.8c49.6,0,96.3,18.4,131.3,51.8c35.1,33.4,54.4,77.9,54.4,125.2s-19.3,91.7-54.4,125.2
			C594.6,466.6,547.9,485,498.3,485 M498.3,132.6c-49.2,0-95.5,18.3-130.3,51.4c-34.8,33.1-54,77.2-54,124.1s19.2,90.9,54,124.1
			c34.8,33.2,81.1,51.4,130.3,51.4c49.2,0,95.5-18.3,130.3-51.4c34.8-33.1,54-77.2,54-124.1s-19.2-90.9-54-124.1
			C593.8,150.8,547.5,132.6,498.3,132.6"/>
		<path class="st42" d="M498.3,485c-36.4,0-70.6-18.4-96.4-51.9c-25.7-33.4-39.8-77.8-39.8-125.1c0-47.2,14.1-91.7,39.8-125.1
			c25.7-33.5,59.9-51.9,96.4-51.9s70.6,18.4,96.4,51.9c25.7,33.4,39.8,77.8,39.8,125.1c0,47.2-14.1,91.7-39.8,125.1
			C568.9,466.6,534.7,485,498.3,485 M498.3,132.6c-74.3,0-134.7,78.7-134.7,175.5S424,483.5,498.3,483.5S633,404.8,633,308
			S572.6,132.6,498.3,132.6"/>
		<path class="st42" d="M498.3,485c-18.4,0-35.7-18.5-48.6-52.1c-12.8-33.4-19.9-77.7-19.9-124.9s7.1-91.5,19.9-124.9
			c12.9-33.6,30.2-52.1,48.6-52.1c18.4,0,35.7,18.5,48.6,52.1c12.8,33.4,19.9,77.7,19.9,124.9s-7.1,91.5-19.9,124.9
			C534,466.5,516.7,485,498.3,485 M498.3,132.6c-36.9,0-67,78.7-67,175.5s30,175.5,67,175.5c36.9,0,67-78.7,67-175.5
			S535.2,132.6,498.3,132.6"/>
		<rect x="497.6" y="131.8" class="st42" width="1.5" height="352.5"/>
		<path class="st42" d="M498.3,328.6c-49.4,0-95.9-1.6-130.9-4.6c-17-1.4-30.4-3.1-39.7-5c-13.6-2.7-15.1-5.2-15.1-6.8
			c0-1.6,1.6-4.1,15.1-6.8c9.3-1.9,22.7-3.5,39.7-5c35-3,81.5-4.6,130.9-4.6c49.4,0,95.9,1.6,130.9,4.6c17,1.4,30.4,3.1,39.7,5
			c13.6,2.7,15.1,5.2,15.1,6.8c0,1.6-1.6,4.1-15.1,6.8c-9.3,1.9-22.7,3.5-39.7,5C594.2,327,547.7,328.6,498.3,328.6 M498.3,297.3
			c-49.4,0-95.8,1.6-130.8,4.6c-50.9,4.3-53.5,9.4-53.5,10.3c0,1,2.6,6,53.5,10.3c34.9,3,81.4,4.6,130.8,4.6
			c49.4,0,95.8-1.6,130.8-4.6c50.9-4.3,53.5-9.4,53.5-10.3c0-1-2.6-6-53.5-10.3C594.1,298.9,547.7,297.3,498.3,297.3"/>
		<path class="st42" d="M498.3,261.9c-84.3,0-171.4-8-171.4-21.3c0-7.6,27.5-12.5,50.7-15.3c32.3-3.9,75.2-6,120.8-6
			s88.5,2.1,120.8,6c23.1,2.8,50.7,7.7,50.7,15.3C669.7,253.9,582.6,261.9,498.3,261.9 M498.3,220.8c-101.7,0-169.9,10.2-169.9,19.8
			c0,9.6,68.3,19.8,169.9,19.8s169.9-10.2,169.9-19.8C668.2,231,600,220.8,498.3,220.8"/>
		<path class="st42" d="M497.8,179c-50.1,0-101.9-6.2-101.9-16.7c0-10.5,51.8-16.7,101.9-16.7c50.1,0,101.9,6.2,101.9,16.7
			C599.7,172.8,547.9,179,497.8,179 M497.8,147.1c-60,0-100.4,7.9-100.4,15.2c0,7.3,40.3,15.2,100.4,15.2c60,0,100.4-7.9,100.4-15.2
			C598.2,155,557.8,147.1,497.8,147.1"/>
		<path class="st42" d="M498.3,395.5c-45.6,0-88.5-2.1-120.8-6c-23.1-2.8-50.7-7.7-50.7-15.3s27.5-12.5,50.7-15.3
			c32.3-3.9,75.2-6,120.8-6s88.5,2.1,120.8,6c23.1,2.8,50.7,7.7,50.7,15.3s-27.5,12.5-50.7,15.3
			C586.8,393.4,543.9,395.5,498.3,395.5 M498.3,354.4c-101.7,0-169.9,10.2-169.9,19.8S396.7,394,498.3,394s169.9-10.2,169.9-19.8
			S600,354.4,498.3,354.4"/>
		<path class="st42" d="M497.8,469.1c-50.1,0-101.9-6.2-101.9-16.7s51.8-16.7,101.9-16.7c50.1,0,101.9,6.2,101.9,16.7
			S547.9,469.1,497.8,469.1 M497.8,437.2c-60,0-100.4,7.9-100.4,15.2c0,7.3,40.3,15.2,100.4,15.2c60,0,100.4-7.9,100.4-15.2
			C598.2,445.1,557.8,437.2,497.8,437.2"/>
		<path class="st42" d="M634.4,253.4c0,3.9-3.2,7.1-7.1,7.1c-3.9,0-7.1-3.2-7.1-7.1c0-3.9,3.2-7.1,7.1-7.1
			C631.3,246.4,634.4,249.5,634.4,253.4"/>
		<path class="st42" d="M570.6,260.1c0,3.9-3.2,7.1-7.1,7.1c-3.9,0-7.1-3.2-7.1-7.1c0-3.9,3.2-7.1,7.1-7.1
			C567.4,253,570.6,256.1,570.6,260.1"/>
		<path class="st42" d="M639.1,322.2c0,3.9-3.2,7.1-7.1,7.1c-3.9,0-7.1-3.2-7.1-7.1c0-3.9,3.2-7.1,7.1-7.1
			C635.9,315.1,639.1,318.3,639.1,322.2"/>
		<path class="st42" d="M572.7,326.2c0,3.9-3.2,7.1-7.1,7.1s-7.1-3.2-7.1-7.1c0-3.9,3.2-7.1,7.1-7.1S572.7,322.3,572.7,326.2"/>
		<path class="st42" d="M675.7,238.8c0,3.9-3.2,7.1-7.1,7.1c-3.9,0-7.1-3.2-7.1-7.1c0-3.9,3.2-7.1,7.1-7.1
			C672.5,231.7,675.7,234.9,675.7,238.8"/>
		<path class="st42" d="M689.8,312.4c0,3.9-3.2,7.1-7.1,7.1c-3.9,0-7.1-3.2-7.1-7.1c0-3.9,3.2-7.1,7.1-7.1
			C686.6,305.3,689.8,308.5,689.8,312.4"/>
		<path class="st42" d="M505.4,261c0,3.9-3.2,7.1-7.1,7.1c-3.9,0-7.1-3.2-7.1-7.1c0-3.9,3.2-7.1,7.1-7.1
			C502.2,253.9,505.4,257.1,505.4,261"/>
		<path class="st42" d="M505.4,178c0,3.9-3.2,7.1-7.1,7.1c-3.9,0-7.1-3.2-7.1-7.1c0-3.9,3.2-7.1,7.1-7.1
			C502.2,171,505.4,174.1,505.4,178"/>
		<path class="st42" d="M550.5,176.1c0,3.9-3.2,7.1-7.1,7.1c-3.9,0-7.1-3.2-7.1-7.1c0-3.9,3.2-7.1,7.1-7.1
			C547.3,169.1,550.5,172.2,550.5,176.1"/>
		<path class="st42" d="M588.9,170.8c0,3.9-3.2,7.1-7.1,7.1c-3.9,0-7.1-3.2-7.1-7.1c0-3.9,3.2-7.1,7.1-7.1
			C585.7,163.7,588.9,166.9,588.9,170.8"/>
		<path class="st42" d="M605.8,161c0,3.9-3.2,7.1-7.1,7.1c-3.9,0-7.1-3.2-7.1-7.1c0-3.9,3.2-7.1,7.1-7.1
			C602.7,154,605.8,157.1,605.8,161"/>
		<path class="st42" d="M505.4,131.8c0,3.9-3.2,7.1-7.1,7.1c-3.9,0-7.1-3.2-7.1-7.1c0-3.9,3.2-7.1,7.1-7.1
			C502.2,124.8,505.4,127.9,505.4,131.8"/>
		<path class="st42" d="M564.7,393.8c0,3.9-3.2,7.1-7.1,7.1c-3.9,0-7.1-3.2-7.1-7.1c0-3.9,3.2-7.1,7.1-7.1
			C561.5,386.8,564.7,389.9,564.7,393.8"/>
		<path class="st42" d="M626.3,387.6c0,3.9-3.2,7.1-7.1,7.1c-3.9,0-7.1-3.2-7.1-7.1c0-3.9,3.2-7.1,7.1-7.1
			C623.1,380.5,626.3,383.7,626.3,387.6"/>
		<path class="st42" d="M674.7,375.6c0,3.9-3.2,7.1-7.1,7.1c-3.9,0-7.1-3.2-7.1-7.1c0-3.9,3.2-7.1,7.1-7.1
			C671.5,368.6,674.7,371.7,674.7,375.6"/>
	</g>
	<g class="st0">
		<defs>
			<rect id="SVGID_99_" width="1080" height="757"/>
		</defs>
		<clipPath id="SVGID_100_">
			<use xlink:href="#SVGID_99_"  style="overflow:visible;"/>
		</clipPath>
		<path class="st43" d="M629.8,690.3c-0.5,0-0.9-0.4-0.9-0.9V465.6c0-0.5,0.4-0.9,0.9-0.9c0.5,0,0.9,0.4,0.9,0.9v223.9
			C630.7,689.9,630.3,690.3,629.8,690.3"/>
		<path class="st43" d="M690.2,676.2c-0.5,0-0.9-0.4-0.9-0.9V459.9c0-0.5,0.4-0.9,0.9-0.9c0.5,0,0.9,0.4,0.9,0.9v215.5
			C691,675.9,690.6,676.2,690.2,676.2"/>
		<path class="st43" d="M829.6,686.3c-0.4,0-0.7-0.2-0.8-0.6l-80.6-222.2c-0.2-0.4,0.1-0.9,0.5-1.1c0.4-0.2,0.9,0.1,1.1,0.5
			l80.6,222.2c0.2,0.4-0.1,0.9-0.5,1.1C829.8,686.3,829.7,686.3,829.6,686.3"/>
		<path class="st43" d="M770.1,703.7c-0.4,0-0.7-0.2-0.8-0.6l-72.4-234.2c-0.1-0.5,0.1-0.9,0.6-1.1c0.5-0.1,0.9,0.1,1.1,0.6
			l72.4,234.2c0.1,0.5-0.1,0.9-0.6,1.1C770.3,703.6,770.2,703.7,770.1,703.7"/>
		<polygon class="st43" points="689.5,459.7 629,464.2 629,465.5 698.1,468.6 749.8,462.3 749.8,460.9 		"/>
		<polygon class="st44" points="689.5,458.3 629,464.2 698.1,467.3 749.8,460.9 		"/>
		<path class="st43" d="M754.4,653c-0.4,0-0.7-0.3-0.8-0.6c-0.1-0.5,0.2-0.9,0.6-1l57.6-15.1c0.5-0.1,0.9,0.2,1,0.6
			c0.1,0.5-0.2,0.9-0.6,1L754.6,653C754.6,653,754.5,653,754.4,653"/>
		<path class="st43" d="M738.1,600c-0.4,0-0.8-0.3-0.8-0.7c-0.1-0.5,0.2-0.9,0.7-1l56.5-10c0.5-0.1,0.9,0.2,1,0.7
			c0.1,0.5-0.2,0.9-0.7,1l-56.5,10C738.2,600,738.2,600,738.1,600"/>
		<path class="st43" d="M721.1,545.2c-0.4,0-0.8-0.3-0.9-0.7c-0.1-0.5,0.3-0.9,0.7-1l54.7-7.1c0.5-0.1,0.9,0.3,1,0.7
			c0.1,0.5-0.3,0.9-0.7,1l-54.7,7.1C721.2,545.2,721.2,545.2,721.1,545.2"/>
		<path class="st43" d="M710.3,507.3c-0.4,0-0.8-0.3-0.8-0.7c-0.1-0.5,0.2-0.9,0.7-1l51.5-8.1c0.5-0.1,0.9,0.2,1,0.7
			c0.1,0.5-0.2,0.9-0.7,1l-51.4,8.1C710.4,507.2,710.3,507.3,710.3,507.3"/>
	</g>
	<g class="st0">
		<defs>
			<path id="SVGID_101_" d="M330.3,671c-4,0.5-6.4,0.3-7.8-0.2c0,0.1,0,0.3,0,0.4c0.1,0.7,0.7,1.2,1.4,1.2c12.8-0.3,22.9-1.5,26.4-2
				c0.7-0.1,1.1-0.9,0.7-1.6c-0.2-0.3-0.5-0.6-0.7-0.9C345.5,668.8,337,670.2,330.3,671"/>
		</defs>
		<clipPath id="SVGID_102_">
			<use xlink:href="#SVGID_101_"  style="overflow:visible;"/>
		</clipPath>
		
			<linearGradient id="SVGID_103_" gradientUnits="userSpaceOnUse" x1="0" y1="757.0067" x2="1" y2="757.0067" gradientTransform="matrix(28.7201 -2.2432 -2.2432 -28.72 2020.7024 22412.6523)">
			<stop  offset="0" style="stop-color:#8859E2"/>
			<stop  offset="1" style="stop-color:#9D6BFF"/>
		</linearGradient>
		<polygon class="st45" points="322.2,668.1 351.4,665.8 351.9,672.5 322.7,674.8 		"/>
	</g>
	<g class="st0">
		<defs>
			<path id="SVGID_104_" d="M325.1,660c-2.6,4.5-2.8,8.7-2.6,10.9c1.4,0.4,3.7,0.6,7.8,0.2c6.7-0.8,15.2-2.2,20.1-3
				c-5.3-5.6-21-8.4-21-8.4L325.1,660z"/>
		</defs>
		<clipPath id="SVGID_105_">
			<use xlink:href="#SVGID_104_"  style="overflow:visible;"/>
		</clipPath>
		
			<linearGradient id="SVGID_106_" gradientUnits="userSpaceOnUse" x1="0" y1="756.9739" x2="1" y2="756.9739" gradientTransform="matrix(27.9108 -2.18 -2.18 -27.9107 1972.4104 21794.3965)">
			<stop  offset="0" style="stop-color:#300A5D"/>
			<stop  offset="1" style="stop-color:#511F91"/>
		</linearGradient>
		<polygon class="st46" points="321.4,659.7 350.2,657.5 351.3,671.4 322.5,673.7 		"/>
	</g>
	<g class="st0">
		<defs>
			<path id="SVGID_107_" d="M323.8,653l1,8c0.1,0.9,0.8,1.5,1.7,1.6c0.9,0.1,2,0,3.2-0.5c0.7-0.3,1.3-1,1.3-1.8l0.8-7.9L323.8,653z"
				/>
		</defs>
		<clipPath id="SVGID_108_">
			<use xlink:href="#SVGID_107_"  style="overflow:visible;"/>
		</clipPath>
		
			<linearGradient id="SVGID_109_" gradientUnits="userSpaceOnUse" x1="0" y1="757.0145" x2="1" y2="757.0145" gradientTransform="matrix(8.0898 -0.6319 -0.6319 -8.0898 802.4914 6781.8799)">
			<stop  offset="0" style="stop-color:#FF7DAA"/>
			<stop  offset="1" style="stop-color:#FEA0C2"/>
		</linearGradient>
		<polygon class="st47" points="323,652.4 331.8,651.7 332.7,662.6 323.8,663.3 		"/>
	</g>
	<g class="st0">
		<defs>
			<path id="SVGID_110_" d="M265.2,673.5c-0.2,1.3,0.6,2.5,2.1,3c1.8,0.6,3.7,0.6,5.2,0.4c1.6-0.2,3-1,3.7-2.1l0,0
				c-1.5,0.9-3.8,1.2-7.4,1C266.7,675.6,265.7,674.6,265.2,673.5C265.2,673.4,265.2,673.5,265.2,673.5"/>
		</defs>
		<clipPath id="SVGID_111_">
			<use xlink:href="#SVGID_110_"  style="overflow:visible;"/>
		</clipPath>
		
			<linearGradient id="SVGID_112_" gradientUnits="userSpaceOnUse" x1="0" y1="756.9791" x2="1" y2="756.9791" gradientTransform="matrix(11.006 -0.8596 -0.8596 -11.006 916.0154 9006.9834)">
			<stop  offset="0" style="stop-color:#8859E2"/>
			<stop  offset="1" style="stop-color:#9D6BFF"/>
		</linearGradient>
		<polygon class="st48" points="264.7,673.5 276.2,672.6 276.6,677.1 265,678 		"/>
	</g>
	<g class="st0">
		<defs>
			<path id="SVGID_113_" d="M273.9,656.8c-5.5,0.3-8,12.1-8.8,16.6c0.5,1.2,1.5,2.2,3.7,2.3c3.6,0.2,5.8-0.1,7.4-1
				c2.6-4.1,3.7-9.9,4.1-13.3c0.5-3.8-2.9-5-2.9-5L273.9,656.8z"/>
		</defs>
		<clipPath id="SVGID_114_">
			<use xlink:href="#SVGID_113_"  style="overflow:visible;"/>
		</clipPath>
		
			<linearGradient id="SVGID_115_" gradientUnits="userSpaceOnUse" x1="0" y1="757.0035" x2="1" y2="757.0035" gradientTransform="matrix(16.1547 -1.2618 -1.2618 -16.1547 1219.8622 12896.0674)">
			<stop  offset="0" style="stop-color:#300A5D"/>
			<stop  offset="1" style="stop-color:#511F91"/>
		</linearGradient>
		<polygon class="st49" points="263.7,656.7 280.8,655.3 282.4,675.9 265.3,677.2 		"/>
	</g>
	<g class="st0">
		<defs>
			<path id="SVGID_116_" d="M272.4,657.4c-0.2,1,0.4,2,1.3,2.3c1.2,0.5,2.8,1,4.2,0.7c0.7-0.1,1.2-0.7,1.4-1.3l2.3-8.5l-7.8-1.2
				L272.4,657.4z"/>
		</defs>
		<clipPath id="SVGID_117_">
			<use xlink:href="#SVGID_116_"  style="overflow:visible;"/>
		</clipPath>
		
			<linearGradient id="SVGID_118_" gradientUnits="userSpaceOnUse" x1="0" y1="756.9784" x2="1" y2="756.9784" gradientTransform="matrix(9.6683 -0.7552 -0.7552 -9.6682 843.8625 7974.0259)">
			<stop  offset="0" style="stop-color:#FF7DAA"/>
			<stop  offset="1" style="stop-color:#FEA0C2"/>
		</linearGradient>
		<polygon class="st50" points="271.4,649.4 281.5,648.6 282.5,660.6 272.3,661.4 		"/>
	</g>
	<g class="st0">
		<defs>
			<path id="SVGID_119_" d="M271.6,651.8c2.6,2,10.7,1.7,10.7,1.7c23.5-71.7,34.6-82.5,34.6-82.5c-2.1,26.5,5.9,84.3,5.9,84.3
				c4.9,1.7,10.9-0.9,10.9-0.9c-3-43,0.7-80.9,6.2-111c-19.6,1.1-30.5-4.8-34.1-7.2C291.6,563.7,271.6,651.8,271.6,651.8"/>
		</defs>
		<clipPath id="SVGID_120_">
			<use xlink:href="#SVGID_119_"  style="overflow:visible;"/>
		</clipPath>
		
			<linearGradient id="SVGID_121_" gradientUnits="userSpaceOnUse" x1="0" y1="756.9359" x2="1" y2="756.9359" gradientTransform="matrix(-84.8921 163.8503 163.8507 84.8919 -123716.9453 -63664.5195)">
			<stop  offset="0" style="stop-color:#FE5176"/>
			<stop  offset="1" style="stop-color:#FF7DAA"/>
		</linearGradient>
		<polygon class="st51" points="389.3,561.7 325.5,684.9 222.3,631.4 286.1,508.2 		"/>
	</g>
	<g class="st0">
		<defs>
			<path id="SVGID_122_" d="M284.7,463.3c2,18.8,13.2,50,18.6,64.2c1.5,4,0.4,10.5-0.6,15c-0.2,0.7,0.3,1.4,1,1.5
				c4.5,0.8,19.4,2.8,34.6-1.2c1-0.3,1.7-1.2,1.7-2.3c-1.9-45.2,2.6-75.9,2.6-75.9c-7.6-6.5-17-8.5-26-8.5
				C300,456.1,284.7,463.3,284.7,463.3"/>
		</defs>
		<clipPath id="SVGID_123_">
			<use xlink:href="#SVGID_122_"  style="overflow:visible;"/>
		</clipPath>
		
			<linearGradient id="SVGID_124_" gradientUnits="userSpaceOnUse" x1="0" y1="757.0024" x2="1" y2="757.0024" gradientTransform="matrix(-154.0662 251.1471 251.1478 154.0659 -189765.2813 -116192.8984)">
			<stop  offset="0" style="stop-color:#8859E2"/>
			<stop  offset="1" style="stop-color:#9D6BFF"/>
		</linearGradient>
		<polygon class="st52" points="383,480.9 326.8,572.6 244.3,522 300.5,430.3 		"/>
	</g>
	<g class="st0">
		<defs>
			<path id="SVGID_125_" d="M328.6,556.9c-7.3,4.2-10.6,10.6-10.7,10.9c-0.2,0.5,0,1,0.4,1.2c0.2,0.1,0.3,0.1,0.5,0.1
				c0.3,0,0.6-0.2,0.8-0.5c0-0.1,3.2-6.1,10-10.1c0.4-0.3,0.6-0.8,0.3-1.3c-0.2-0.3-0.5-0.5-0.8-0.5
				C328.9,556.8,328.7,556.8,328.6,556.9"/>
		</defs>
		<clipPath id="SVGID_126_">
			<use xlink:href="#SVGID_125_"  style="overflow:visible;"/>
		</clipPath>
		
			<linearGradient id="SVGID_127_" gradientUnits="userSpaceOnUse" x1="0" y1="757" x2="1" y2="757" gradientTransform="matrix(0.2774 -45.3051 -45.3052 -0.2774 34619.9375 769.6563)">
			<stop  offset="0" style="stop-color:#E12E60"/>
			<stop  offset="1" style="stop-color:#E94A7E"/>
		</linearGradient>
		<polygon class="st53" points="317.6,569.1 317.6,556.7 330.2,556.8 330.1,569.2 		"/>
	</g>
	<g class="st0">
		<defs>
			<path id="SVGID_128_" d="M342.2,442.1c-7,13-25.8,18.8-25.8,18.8l25.2,3.2c12.7-5.9,16.2-14.8,16-23.2
				C351.4,442.5,346,442.5,342.2,442.1"/>
		</defs>
		<clipPath id="SVGID_129_">
			<use xlink:href="#SVGID_128_"  style="overflow:visible;"/>
		</clipPath>
		
			<linearGradient id="SVGID_130_" gradientUnits="userSpaceOnUse" x1="0" y1="756.9955" x2="1" y2="756.9955" gradientTransform="matrix(250.4334 152.5164 152.6967 -250.1184 -115290.9688 189768.3438)">
			<stop  offset="0" style="stop-color:#8859E2"/>
			<stop  offset="1" style="stop-color:#9D6BFF"/>
		</linearGradient>
		<polygon class="st54" points="327.6,422.6 368.1,447.3 346.6,482.6 306.1,457.9 		"/>
	</g>
	<g class="st0">
		<defs>
			<path id="SVGID_131_" d="M342.4,421.5c3.6,8.3,2.8,15.1-0.2,20.6c3.8,0.3,9.2,0.3,15.4-1.1c1.4-23-15.7-23.5-15.7-23.5
				L342.4,421.5z"/>
		</defs>
		<clipPath id="SVGID_132_">
			<use xlink:href="#SVGID_131_"  style="overflow:visible;"/>
		</clipPath>
		
			<linearGradient id="SVGID_133_" gradientUnits="userSpaceOnUse" x1="0" y1="756.8949" x2="1" y2="756.8949" gradientTransform="matrix(-8.2268 -25.8817 -25.9135 8.2157 19968.0645 -5776.3369)">
			<stop  offset="0" style="stop-color:#FF7DAA"/>
			<stop  offset="1" style="stop-color:#FEA0C2"/>
		</linearGradient>
		<polygon class="st55" points="343.5,447.4 334.7,419.8 357.5,412.6 366.2,440.2 		"/>
	</g>
	<g class="st0">
		<defs>
			<path id="SVGID_134_" d="M304.8,442.2l3.3,19c0.5,2.9,3.4,4.7,6.2,4c2.7-0.7,5.5-1.8,7.7-2.7c2.1-0.8,2.9-3.2,1.9-5.2l-9.4-17.3
				L304.8,442.2z"/>
		</defs>
		<clipPath id="SVGID_135_">
			<use xlink:href="#SVGID_134_"  style="overflow:visible;"/>
		</clipPath>
		
			<linearGradient id="SVGID_136_" gradientUnits="userSpaceOnUse" x1="0" y1="757.0234" x2="1" y2="757.0234" gradientTransform="matrix(13.1251 38.6833 38.6834 -13.1251 -28974.7734 10373.1943)">
			<stop  offset="0" style="stop-color:#FF7DAA"/>
			<stop  offset="1" style="stop-color:#FEA0C2"/>
		</linearGradient>
		<polygon class="st56" points="322.9,433.9 332.8,463.3 306.8,472.1 296.9,442.7 		"/>
	</g>
	<g class="st0">
		<defs>
			<path id="SVGID_137_" d="M337.7,411.8c-1.5,1-3.3,2.6-3.2,3.7c0.1,1.9,8.8,7.9,10.7,2.6c0.5-1.3-2.3-4.3-4.2-6.1
				c-0.5-0.5-1.2-0.7-1.8-0.7C338.7,411.3,338.2,411.5,337.7,411.8"/>
		</defs>
		<clipPath id="SVGID_138_">
			<use xlink:href="#SVGID_137_"  style="overflow:visible;"/>
		</clipPath>
		
			<linearGradient id="SVGID_139_" gradientUnits="userSpaceOnUse" x1="0" y1="756.9623" x2="1" y2="756.9623" gradientTransform="matrix(40.0797 -3.6705 -3.6764 -40.0303 3096.1912 30721.2285)">
			<stop  offset="0" style="stop-color:#FF7DAA"/>
			<stop  offset="1" style="stop-color:#FEA0C2"/>
		</linearGradient>
		<polygon class="st57" points="333.3,411.4 345.6,410.3 346.8,423.3 334.5,424.5 		"/>
	</g>
	<g class="st0">
		<defs>
			<path id="SVGID_140_" d="M300.3,431l13.6,15.8l10.7-6.4c0,0-11.6-18.4-11.9-18.6c-0.5-0.4-1.1-0.6-1.7-0.6
				C306.5,421.2,300.3,431,300.3,431"/>
		</defs>
		<clipPath id="SVGID_141_">
			<use xlink:href="#SVGID_140_"  style="overflow:visible;"/>
		</clipPath>
		
			<linearGradient id="SVGID_142_" gradientUnits="userSpaceOnUse" x1="0" y1="757.0104" x2="1" y2="757.0104" gradientTransform="matrix(10.6145 40.0603 40.0603 -10.6145 -30023.1191 8433.6475)">
			<stop  offset="0" style="stop-color:#FF7DAA"/>
			<stop  offset="1" style="stop-color:#FEA0C2"/>
		</linearGradient>
		<polygon class="st58" points="323,415.2 330.9,445.1 301.9,452.8 293.9,422.9 		"/>
	</g>
	<g class="st0">
		<defs>
			<path id="SVGID_143_" d="M305.8,414.4c-2.6,1.7-2.5,4-2,5.6c0.3,0.8-0.2,1.8-1.1,2c-0.6,0.1-0.9,0.5-1,0.9
				c-0.2,0.7-0.8,1.2-1.6,1.2c-1.8-0.1-4.7,0.3-6,3.5c-1.3,3.1,0.6,4.8,2.2,5.5c0.8,0.4,1.1,1.3,0.7,2.1c-2,3.7,0.7,5.5,2.1,6.1
				c0.4,0.2,0.8,0.2,1.2,0c1.2-0.5,4-1.4,5.8,0c1.8,1.5,7.4,7.8,9.2,9.9c0.4,0.4,0.9,0.6,1.5,0.5c4.1-0.9,8.6-3.1,10.8-4.2
				c0.7-0.4,1-1.2,0.7-1.9c-1.5-3.6-3.8-7.4-4.9-9.1c-0.4-0.7-1.3-0.9-2-0.6c-1.6,0.8-2.9,3-4.3,5.3c-1.6,2.6-4,1-4.7,0.4
				c-0.1-0.1-0.2-0.2-0.3-0.3l-6.5-8.9c-0.3-0.4-0.4-0.9-0.2-1.3c0.4-1.4,1.5-4.4,4-5c3.3-0.7,8.5-3.8,7.1-7.3
				c-1-2.6-3.9-5.5-7.1-5.5C308.1,413.3,306.9,413.6,305.8,414.4"/>
		</defs>
		<clipPath id="SVGID_144_">
			<use xlink:href="#SVGID_143_"  style="overflow:visible;"/>
		</clipPath>
		
			<linearGradient id="SVGID_145_" gradientUnits="userSpaceOnUse" x1="0" y1="757.0259" x2="1" y2="757.0259" gradientTransform="matrix(70.2487 -51.9996 -51.9996 -70.2485 39660.7578 53623.4727)">
			<stop  offset="0" style="stop-color:#300A5D"/>
			<stop  offset="1" style="stop-color:#511F91"/>
		</linearGradient>
		<polygon class="st59" points="274.4,426.9 315.8,396.2 346.9,438.2 305.4,468.9 		"/>
	</g>
	<g class="st0">
		<defs>
			<path id="SVGID_146_" d="M302.9,439c-2.7,0.5-4.6,3.4-1,6.2c4.6,3.4,6.4-0.6,6.4-0.6s-2.5-5.6-5.1-5.6
				C303.1,438.9,303,439,302.9,439"/>
		</defs>
		<clipPath id="SVGID_147_">
			<use xlink:href="#SVGID_146_"  style="overflow:visible;"/>
		</clipPath>
		
			<linearGradient id="SVGID_148_" gradientUnits="userSpaceOnUse" x1="0" y1="757.0302" x2="1" y2="757.0302" gradientTransform="matrix(-3.8281 -28.461 -28.461 3.8282 21852.8086 -2427.2461)">
			<stop  offset="0" style="stop-color:#FF7DAA"/>
			<stop  offset="1" style="stop-color:#FEA0C2"/>
		</linearGradient>
		<polygon class="st60" points="298.5,449.9 297,439.1 308.2,437.6 309.6,448.4 		"/>
	</g>
	<g class="st0">
		<defs>
			<path id="SVGID_149_" d="M311.8,411c0,0-0.2,12.9-5.6,26.2c4,1.9,9.2,2.4,12.9,2.5c1.1-8.6,0.1-18.7-4.2-30.1L311.8,411z"/>
		</defs>
		<clipPath id="SVGID_150_">
			<use xlink:href="#SVGID_149_"  style="overflow:visible;"/>
		</clipPath>
		
			<linearGradient id="SVGID_151_" gradientUnits="userSpaceOnUse" x1="0" y1="757.0358" x2="1" y2="757.0358" gradientTransform="matrix(41.2185 -20.6721 -20.6721 -41.2173 15949.0996 31634.459)">
			<stop  offset="0" style="stop-color:#FF7DAA"/>
			<stop  offset="1" style="stop-color:#FEA0C2"/>
		</linearGradient>
		<polygon class="st61" points="294.2,415.6 317.4,404 332.3,433.6 309,445.3 		"/>
	</g>
	<g class="st0">
		<defs>
			<path id="SVGID_152_" d="M282.8,463.5l8.8,29.8c0,0,23.6-21.6,27.6-53.7c-3.7,0-8.9-0.5-12.9-2.5
				C302.4,446.8,293.8,458.2,282.8,463.5"/>
		</defs>
		<clipPath id="SVGID_153_">
			<use xlink:href="#SVGID_152_"  style="overflow:visible;"/>
		</clipPath>
		
			<linearGradient id="SVGID_154_" gradientUnits="userSpaceOnUse" x1="0" y1="756.9966" x2="1" y2="756.9966" gradientTransform="matrix(242.8438 -119.0956 -119.0959 -242.8367 90388.1953 184325.1563)">
			<stop  offset="0" style="stop-color:#8859E2"/>
			<stop  offset="1" style="stop-color:#9D6BFF"/>
		</linearGradient>
		<polygon class="st62" points="260.6,448.1 312.1,422.9 341.3,482.5 289.8,507.7 		"/>
	</g>
	<g class="st0">
		<defs>
			<path id="SVGID_155_" d="M296.5,403.2l4,6.2l12.4,2.2l2.7-0.6c1.1-4.5-4.9-3.5-4.9-3.5s-5.2-1.7-8.9-3.7
				c-1.5-0.8-2.7-1.1-3.6-1.1C297.1,402.7,296.5,403.2,296.5,403.2"/>
		</defs>
		<clipPath id="SVGID_156_">
			<use xlink:href="#SVGID_155_"  style="overflow:visible;"/>
		</clipPath>
		
			<linearGradient id="SVGID_157_" gradientUnits="userSpaceOnUse" x1="0" y1="756.9928" x2="1" y2="756.9928" gradientTransform="matrix(41.2189 -20.6722 -20.6723 -41.2176 15940.0166 31616.3457)">
			<stop  offset="0" style="stop-color:#FF7DAA"/>
			<stop  offset="1" style="stop-color:#FEA0C2"/>
		</linearGradient>
		<polygon class="st63" points="292.9,404.5 312.6,394.7 320.2,409.9 300.5,419.7 		"/>
	</g>
	<g class="st0">
		<defs>
			<rect id="SVGID_158_" width="1080" height="757"/>
		</defs>
		<clipPath id="SVGID_159_">
			<use xlink:href="#SVGID_158_"  style="overflow:visible;"/>
		</clipPath>
		<path class="st64" d="M405.1,376.8c6.2,3.1,13.9,0.3,17.3-6.4c3.4-6.7,1.1-14.6-5-17.7c-0.3-0.2-0.6-0.3-1-0.4
			c1.1-3.7,2-7.4,2.6-11.1c0.4,0,0.7,0,1.1,0c7-0.6,12.6-7.1,12.5-14.4c-0.1-7.3-6-12.8-13-12.2c-0.4,0-0.7,0.1-1.1,0.2
			c-0.7-3.6-1.7-7.2-3-10.6c0.3-0.2,0.6-0.4,1-0.6c6-4.2,7.9-12.5,4.3-18.6s-11.5-7.5-17.5-3.3c-0.3,0.2-0.6,0.4-0.9,0.7
			c-2.4-2.6-5-5.1-7.8-7.3c0.2-0.3,0.4-0.7,0.6-1c3.4-6.7,7.8-14,1.6-17c-14.4-7-20.5-1-23.9,5.7c-0.2,0.3-0.3,0.7-0.5,1
			c-3.5-1-7-1.6-10.5-2c0-0.4,0-0.7,0-1.1c-0.1-7.3,2-11.3-5-11.5c-15.4-0.3-20.6,6.4-20.4,13.7c0,0.4,0,0.8,0.1,1.1
			c-3.5,1-7,2.3-10.4,3.8c-0.2-0.3-0.3-0.7-0.5-1c-3.6-6-11.5-7.5-17.5-3.3c-6,4.2-7.9,12.5-4.3,18.6c0.2,0.3,0.4,0.6,0.6,0.9
			c-2.7,2.7-5.2,5.6-7.5,8.7c-0.3-0.2-0.6-0.4-0.9-0.5c-6.2-3.1-13.9-0.3-17.3,6.4c-3.4,6.7-1.1,14.6,5,17.7c0.3,0.2,0.6,0.3,1,0.4
			c-1.1,3.7-2,7.4-2.6,11.1c-0.4,0-0.7,0-1.1,0c-7,0.6-12.6,7.1-12.5,14.4c0.1,7.3,6,12.8,13,12.2c0.4,0,0.7-0.1,1.1-0.2
			c0.7,3.6,1.7,7.2,3,10.6c-0.3,0.2-0.6,0.4-1,0.6c-6,4.2-7.9,12.5-4.3,18.6c3.6,6,15.7,8.9,21.7,4.6c0.3-0.2-3.6-1.8-3.3-2
			c2.4,2.6,5,5.1,7.8,7.3c-0.2,0.3-0.4,0.7-0.6,1c-3.4,6.7-1.1,14.6,5,17.7c6.2,3.1,13.9,0.3,17.3-6.4c0.2-0.3,0.3-0.7,0.5-1
			c3.5,1,7,1.6,10.5,2c0,0.4,0,0.7,0,1.1c0.1,7.3,6,12.8,13,12.2c7-0.6,12.6-7.1,12.5-14.4c0-0.4,0-0.8-0.1-1.1
			c3.5-1,7-2.3,10.4-3.8c0.2,0.3,0.3,0.7,0.5,1c3.6,6,11.5,7.5,17.5,3.3c6-4.2,7.9-12.5,4.3-18.6c-0.2-0.3-0.4-0.6-0.6-0.9
			c2.7-2.7,5.2-5.6,7.5-8.7C404.5,376.4,404.8,376.6,405.1,376.8 M328.3,377.7c-22.4-11.4-30.5-40.2-18.3-64.4
			c12.3-24.2,40.4-34.7,62.8-23.3s30.5,40.2,18.3,64.4C378.8,378.7,350.7,389.1,328.3,377.7"/>
		<path class="st64" d="M420,341c7-0.6,12.6-7.1,12.5-14.4c-0.1-7.3-6-12.8-13-12.2c-0.4,0-0.7,0.1-1.1,0.2c-0.7-3.6-1.7-7.2-3-10.6
			c0.3-0.2,0.6-0.4,1-0.6c6-4.2,13.5-14.4,9.2-20c-8.1-10.7-16.4-6.1-22.4-1.9c-0.3,0.2-0.6,0.4-0.9,0.7c-2.4-2.6-5-5.1-7.8-7.3
			c0.2-0.3,0.4-0.7,0.6-1c1.8-3.6,2-7.6,0.8-11c-5.8,10.2-11.5,20.5-17.2,30.8c17.9,13.1,23.5,38.8,12.4,60.8
			c-9.5,18.6-28.2,29.1-46.6,27.8c-0.8,2.1-1.6,4.3-2.5,6.4c-2.4,5.7-5.1,11.3-7.8,16.9c1.7,0.3,3.4,0.6,5.1,0.8c0,0.4,0,0.7,0,1.1
			c0.1,7.3,4.6,13.6,17.3,12.9c7-0.4,8.3-7.8,8.1-15.2c0-0.4,0-0.8-0.1-1.1c3.5-1,7-2.3,10.4-3.8c0.2,0.3,0.3,0.7,0.5,1
			c3.6,6,16.3,8.6,22.3,4.4s3.1-13.6-0.5-19.7c-0.2-0.3-0.4-0.6-0.6-0.9c2.7-2.7,5.2-5.6,7.5-8.7c0.3,0.2,0.6,0.4,0.9,0.5
			c6.2,3.1,13.9,0.3,17.3-6.4c3.4-6.7,1.1-14.6-5-17.7c-0.3-0.2-0.6-0.3-1-0.4c1.1-3.7,2-7.4,2.6-11.1C419.3,341,419.7,341,420,341"
			/>
		<path class="st65" d="M411.7,377.5c6.2,3.1,13.9,0.3,17.3-6.4c3.4-6.7,1.1-14.6-5-17.7c-0.3-0.2-0.6-0.3-1-0.4
			c1.1-3.7,2-7.4,2.6-11.1c0.4,0,0.7,0,1.1,0c7-0.6,12.6-7.1,12.5-14.4c-0.1-7.3-6-12.8-13-12.2c-0.4,0-0.7,0.1-1.1,0.2
			c-0.7-3.6-1.7-7.2-3-10.6c0.3-0.2,0.6-0.4,1-0.6c6-4.2,7.9-12.5,4.3-18.6c-3.6-6-11.5-7.5-17.5-3.3c-0.3,0.2-0.6,0.4-0.9,0.7
			c-2.4-2.6-5-5.1-7.8-7.3c0.2-0.3,0.4-0.7,0.6-1c3.4-6.7,1.1-14.6-5-17.7c-6.2-3.1-13.9-0.3-17.3,6.4c-0.2,0.3-0.3,0.7-0.5,1
			c-3.5-1-7-1.6-10.5-2c0-0.4,0-0.7,0-1.1c-0.1-7.3-6-12.8-13-12.2c-7,0.6-12.6,7.1-12.5,14.4c0,0.4,0,0.8,0.1,1.1
			c-3.5,1-7,2.3-10.4,3.8c-0.2-0.3-0.3-0.7-0.5-1c-3.6-6-11.5-7.5-17.5-3.3c-6,4.2-7.9,12.5-4.3,18.6c0.2,0.3,0.4,0.6,0.6,0.9
			c-2.7,2.7-5.2,5.6-7.5,8.7c-0.3-0.2-0.6-0.4-0.9-0.5c-6.2-3.1-13.9-0.3-17.3,6.4c-3.4,6.7-1.1,14.6,5,17.7c0.3,0.2,0.6,0.3,1,0.4
			c-1.1,3.7-2,7.4-2.6,11.1c-0.4,0-0.7,0-1.1,0c-7,0.6-12.6,7.1-12.5,14.4c0.1,7.3,6,12.8,13,12.2c0.4,0,0.7-0.1,1.1-0.2
			c0.7,3.6,1.7,7.2,3,10.6c-0.3,0.2-0.6,0.4-1,0.6c-6,4.2-7.9,12.5-4.3,18.6c3.6,6,11.5,7.5,17.5,3.3c0.3-0.2,0.6-0.4,0.9-0.7
			c2.4,2.6,5,5.1,7.8,7.3c-0.2,0.3-0.4,0.7-0.6,1c-3.4,6.7-1.1,14.6,5,17.7c6.2,3.1,13.9,0.3,17.3-6.4c0.2-0.3,0.3-0.7,0.5-1
			c3.5,1,7,1.6,10.5,2c0,0.4,0,0.7,0,1.1c0.1,7.3,6,12.8,13,12.2c7-0.6,12.6-7.1,12.5-14.4c0-0.4,0-0.8-0.1-1.1
			c3.5-1,7-2.3,10.4-3.8c0.2,0.3,0.3,0.7,0.5,1c3.6,6,11.5,7.5,17.5,3.3c6-4.2,7.9-12.5,4.3-18.6c-0.2-0.3-0.4-0.6-0.6-0.9
			c2.7-2.7,5.2-5.6,7.5-8.7C411.1,377.2,411.4,377.3,411.7,377.5 M334.9,378.5c-22.4-11.4-30.5-40.2-18.3-64.4
			c12.3-24.2,40.4-34.7,62.8-23.3s30.5,40.2,18.3,64.4C385.4,379.4,357.3,389.9,334.9,378.5"/>
		<path class="st65" d="M593.8,482.8c0,4.1-3.3,7.4-7.4,7.4c-4.1,0-7.4-3.3-7.4-7.4c0-4.1,3.3-7.4,7.4-7.4
			C590.5,475.4,593.8,478.7,593.8,482.8"/>
		<path class="st65" d="M535.4,525.5c0,3.1-2.5,5.6-5.6,5.6s-5.6-2.5-5.6-5.6c0-3.1,2.5-5.6,5.6-5.6S535.4,522.4,535.4,525.5"/>
		<polygon class="st65" points="529.1,527.6 528.2,526.4 586.1,482.1 586.3,482.1 670.6,473.5 670.7,475 586.7,483.5 		"/>
		<path class="st65" d="M676.3,475.4c0,3.1-2.5,5.6-5.6,5.6c-3.1,0-5.6-2.5-5.6-5.6c0-3.1,2.5-5.6,5.6-5.6
			C673.8,469.8,676.3,472.3,676.3,475.4"/>
		<path class="st66" d="M648.8,74.9l-143.3-1.3c-2.8,0-5.1,2.3-5.1,5.1l0.6,110c0,2.8,2.4,5.1,5.2,5c25.9-0.8,140.9-4.2,146-4
			c5,0.2,2.3-88.1,1.5-109.9C653.7,77,651.5,74.9,648.8,74.9"/>
	</g>
	<g class="st0">
		<defs>
			<path id="SVGID_160_" d="M505.8,188.6l-0.6-110c0-0.1,0-0.2,0.1-0.2c0.1-0.1,0.1-0.1,0.2-0.1l143.3,1.3c0.2,0,0.3,0.1,0.3,0.3
				c1.8,53.5,1.9,94.6,0.1,105.1c-19.5,0.3-122.6,3.3-143.1,4l0,0C505.9,188.9,505.8,188.8,505.8,188.6 M504.9,78
				c-0.2,0.2-0.2,0.4-0.2,0.6l0.6,110c0,0.5,0.4,0.8,0.8,0.8l0,0c20.6-0.6,124.4-3.7,143.3-4l0.2,0l0-0.2
				c1.8-10.1,1.8-51.5-0.1-105.4c0-0.4-0.4-0.8-0.8-0.8l-143.3-1.3C505.2,77.8,505,77.9,504.9,78"/>
		</defs>
		<clipPath id="SVGID_161_">
			<use xlink:href="#SVGID_160_"  style="overflow:visible;"/>
		</clipPath>
		
			<linearGradient id="SVGID_162_" gradientUnits="userSpaceOnUse" x1="0" y1="757" x2="1" y2="757" gradientTransform="matrix(-146.3878 -9.165000e-04 0 -146.3875 651.0058 110948.9609)">
			<stop  offset="0" style="stop-color:#DAE3FE"/>
			<stop  offset="1" style="stop-color:#E9EFFD"/>
		</linearGradient>
		<rect x="504.6" y="77.8" class="st67" width="146.9" height="111.6"/>
	</g>
	<g class="st0">
		<defs>
			<path id="SVGID_163_" d="M666.6,448.4c-8.4,2.7-18.5,9.5-22.9,12.6c4.8,0.2,12,0.5,19.5,0.1c8.2-0.4,11-2,11.9-3.2
				c-0.7-6.8-2.7-9.8-2.7-9.8L666.6,448.4z"/>
		</defs>
		<clipPath id="SVGID_164_">
			<use xlink:href="#SVGID_163_"  style="overflow:visible;"/>
		</clipPath>
		
			<linearGradient id="SVGID_165_" gradientUnits="userSpaceOnUse" x1="0" y1="756.9974" x2="1" y2="756.9974" gradientTransform="matrix(-31.9818 -2.002000e-04 0 -31.9818 675.1609 24664.9277)">
			<stop  offset="0" style="stop-color:#300A5D"/>
			<stop  offset="1" style="stop-color:#511F91"/>
		</linearGradient>
		<rect x="643.7" y="448.1" class="st68" width="31.4" height="13.4"/>
	</g>
	<g class="st0">
		<defs>
			<path id="SVGID_166_" d="M663.1,461.2c-7.4,0.3-14.7,0.1-19.5-0.1c0,0,0,0-0.1,0c-0.8,0.6-0.4,1.8,0.5,1.8
				c7.3,0.4,22.4-0.7,28.5-1.1c1.5-0.1,2.6-1.4,2.5-2.9c0-0.3-0.1-0.6-0.1-1C674.1,459.1,671.3,460.8,663.1,461.2"/>
		</defs>
		<clipPath id="SVGID_167_">
			<use xlink:href="#SVGID_166_"  style="overflow:visible;"/>
		</clipPath>
		
			<linearGradient id="SVGID_168_" gradientUnits="userSpaceOnUse" x1="0" y1="756.9953" x2="1" y2="756.9953" gradientTransform="matrix(-31.9818 -2.002000e-04 0 -31.9817 675.1609 24670.6602)">
			<stop  offset="0" style="stop-color:#8859E2"/>
			<stop  offset="1" style="stop-color:#9D6BFF"/>
		</linearGradient>
		<rect x="642.8" y="457.9" class="st69" width="32.4" height="5.4"/>
	</g>
	<g class="st0">
		<defs>
			<path id="SVGID_169_" d="M718.5,449.3c-0.7,1.3-1.5,6.3-2.1,9.8c-0.1,0.7,0.1,1.4,0.4,2l14.5-0.5c0-0.3-0.1-0.6-0.2-0.9
				c-1.4-2.4-3.5-6-4.2-7.3c-1.2-2-3.7-3.2-3.7-3.2s-1.6-0.9-3-0.9C719.5,448.4,718.9,448.7,718.5,449.3"/>
		</defs>
		<clipPath id="SVGID_170_">
			<use xlink:href="#SVGID_169_"  style="overflow:visible;"/>
		</clipPath>
		
			<linearGradient id="SVGID_171_" gradientUnits="userSpaceOnUse" x1="-5.135466e-04" y1="757" x2="0.9995" y2="757" gradientTransform="matrix(-14.9751 -9.380000e-05 0 -14.9751 731.3423 11790.9639)">
			<stop  offset="0" style="stop-color:#300A5D"/>
			<stop  offset="1" style="stop-color:#511F91"/>
		</linearGradient>
		<rect x="716.3" y="448.4" class="st70" width="15.1" height="12.7"/>
	</g>
	<g class="st0">
		<defs>
			<path id="SVGID_172_" d="M716.8,461.2c0.5,0.8,1.5,1.4,2.6,1.4l10.4-0.3c0.9,0,1.6-0.8,1.6-1.6L716.8,461.2z"/>
		</defs>
		<clipPath id="SVGID_173_">
			<use xlink:href="#SVGID_172_"  style="overflow:visible;"/>
		</clipPath>
		
			<linearGradient id="SVGID_174_" gradientUnits="userSpaceOnUse" x1="-2.520293e-05" y1="756.999" x2="1" y2="756.999" gradientTransform="matrix(-14.5305 -9.100000e-05 0 -14.5305 731.3416 11461.1729)">
			<stop  offset="0" style="stop-color:#8859E2"/>
			<stop  offset="1" style="stop-color:#9D6BFF"/>
		</linearGradient>
		<rect x="716.8" y="460.7" class="st71" width="14.5" height="1.9"/>
	</g>
	<g class="st0">
		<defs>
			<path id="SVGID_175_" d="M715.3,437.7c0.1,0.4,2,9.5,2.8,13.5c0.2,1.1,1.2,1.9,2.3,1.8c0.6,0,1.3-0.1,2.1-0.2
				c1.3-0.2,2.3-1.3,2.4-2.6c0.1-3.5,0.2-10.2-1.1-12.8c-0.6-1.1-1.6-1.5-2.8-1.5C718.5,435.9,715.3,437.7,715.3,437.7"/>
		</defs>
		<clipPath id="SVGID_176_">
			<use xlink:href="#SVGID_175_"  style="overflow:visible;"/>
		</clipPath>
		
			<linearGradient id="SVGID_177_" gradientUnits="userSpaceOnUse" x1="0" y1="756.9973" x2="1" y2="756.9973" gradientTransform="matrix(-9.7165 -6.080000e-05 0 -9.7165 725.0088 7799.8853)">
			<stop  offset="0" style="stop-color:#FF7DAA"/>
			<stop  offset="1" style="stop-color:#FEA0C2"/>
		</linearGradient>
		<rect x="715.3" y="435.9" class="st72" width="9.8" height="17.2"/>
	</g>
	<g class="st0">
		<defs>
			<path id="SVGID_178_" d="M666.4,448.1c0.1,1.1,1,2,2.2,2.1c0.8,0.1,1.5,0.1,2.1,0.1c1,0,1.7-0.7,1.9-1.7c1.2-4.1,0.1-8.3,0.9-8.3
				l-8.1-2.9L666.4,448.1z"/>
		</defs>
		<clipPath id="SVGID_179_">
			<use xlink:href="#SVGID_178_"  style="overflow:visible;"/>
		</clipPath>
		
			<linearGradient id="SVGID_180_" gradientUnits="userSpaceOnUse" x1="0" y1="756.9996" x2="1" y2="756.9996" gradientTransform="matrix(-8.0984 -5.070000e-05 0 -8.0984 673.5342 6574.3193)">
			<stop  offset="0" style="stop-color:#FF7DAA"/>
			<stop  offset="1" style="stop-color:#FEA0C2"/>
		</linearGradient>
		<rect x="665.4" y="437.4" class="st73" width="8.4" height="12.8"/>
	</g>
	<g class="st0">
		<defs>
			<path id="SVGID_181_" d="M651,327c0.4,1.7,13,75.7,13.8,114c0,0.6,0.5,1.2,1.1,1.3c1.6,0.2,4.7,0.5,7.8-0.1
				c0.4-0.1,0.7-0.4,0.8-0.8c0.4-7.1,4-67.5-0.4-95.9c0,0,36.1,75.9,41.5,96.9c0.1,0.5,0.6,0.9,1.1,0.8c1.5-0.1,4.8-0.4,7.3-1.3
				c0.9-0.3,1.4-1.3,1.2-2.2c-3.1-12.5-24.5-98.8-39-117.9L651,327z"/>
		</defs>
		<clipPath id="SVGID_182_">
			<use xlink:href="#SVGID_181_"  style="overflow:visible;"/>
		</clipPath>
		
			<linearGradient id="SVGID_183_" gradientUnits="userSpaceOnUse" x1="0" y1="756.8828" x2="1" y2="756.8828" gradientTransform="matrix(50.6581 52.2091 -52.2089 50.6577 40153.3945 -38011.8867)">
			<stop  offset="0" style="stop-color:#300A5D"/>
			<stop  offset="1" style="stop-color:#511F91"/>
		</linearGradient>
		<polygon class="st74" points="590.3,380.7 687.2,480.5 786.2,384.3 689.4,284.5 		"/>
	</g>
	<g class="st0">
		<defs>
			<path id="SVGID_184_" d="M669,340.2c-0.2,0.2-0.2,0.5,0,0.7l4.8,4.9c0.1,0.1,0.2,0.1,0.3,0.1c0.1,0,0.2,0,0.3-0.1
				c0.2-0.2,0.2-0.5,0-0.7l-4.8-4.9c-0.1-0.1-0.2-0.1-0.3-0.1C669.2,340.1,669.1,340.1,669,340.2"/>
		</defs>
		<clipPath id="SVGID_185_">
			<use xlink:href="#SVGID_184_"  style="overflow:visible;"/>
		</clipPath>
		
			<linearGradient id="SVGID_186_" gradientUnits="userSpaceOnUse" x1="0" y1="757" x2="1" y2="757" gradientTransform="matrix(33.1454 42.8523 -42.8521 33.145 33092.4688 -24771.4395)">
			<stop  offset="0" style="stop-color:#020039"/>
			<stop  offset="1" style="stop-color:#090056"/>
		</linearGradient>
		<polygon class="st75" points="665.9,342.3 671,348.8 677.5,343.8 672.5,337.2 		"/>
	</g>
	<g class="st0">
		<defs>
			<path id="SVGID_187_" d="M582.8,238.7c15.9,19.4,45.4,23.6,45.4,23.6l0.4,9.8l48.4-5.5l-1.2-37.1c-14.2-2.6-35,2-45.5,4.8
				c-7.9,2.1-16.2,2.1-24-0.1c-6.1-1.7-10.9-4.4-14.7-7.6C589.8,229.8,586.7,234.5,582.8,238.7"/>
		</defs>
		<clipPath id="SVGID_188_">
			<use xlink:href="#SVGID_187_"  style="overflow:visible;"/>
		</clipPath>
		
			<linearGradient id="SVGID_189_" gradientUnits="userSpaceOnUse" x1="0" y1="757.0258" x2="1" y2="757.0258" gradientTransform="matrix(167.5738 255.8179 -255.8174 167.5719 194282.2656 -126619.0313)">
			<stop  offset="0" style="stop-color:#8859E2"/>
			<stop  offset="1" style="stop-color:#9D6BFF"/>
		</linearGradient>
		<polygon class="st76" points="561.9,240.3 611.1,315.3 697.9,258.5 648.7,183.4 		"/>
	</g>
	<g class="st0">
		<defs>
			<path id="SVGID_190_" d="M574.2,197.7c-3.9,18.2,0.7,31.4,8.6,41c3.9-4.2,7-8.9,8.9-12.1c-13.9-11.9-13.7-30.5-13.7-30.5
				L574.2,197.7z"/>
		</defs>
		<clipPath id="SVGID_191_">
			<use xlink:href="#SVGID_190_"  style="overflow:visible;"/>
		</clipPath>
		
			<linearGradient id="SVGID_192_" gradientUnits="userSpaceOnUse" x1="0" y1="756.9712" x2="1" y2="756.9712" gradientTransform="matrix(8.2707 22.3999 -22.3999 8.2706 17504.4512 -6131.6992)">
			<stop  offset="0" style="stop-color:#FF7DAA"/>
			<stop  offset="1" style="stop-color:#FEA0C2"/>
		</linearGradient>
		<polygon class="st77" points="556.5,201.2 572.9,245.6 605.5,233.6 589.1,189.2 		"/>
	</g>
	<g class="st0">
		<defs>
			<path id="SVGID_193_" d="M639.2,212.4l-0.4,20.3c3.5,2,17.1-1.7,17.1-1.7c-0.4-5.3-3.2-22.1-3.2-22.1L639.2,212.4z"/>
		</defs>
		<clipPath id="SVGID_194_">
			<use xlink:href="#SVGID_193_"  style="overflow:visible;"/>
		</clipPath>
		
			<linearGradient id="SVGID_195_" gradientUnits="userSpaceOnUse" x1="0" y1="756.9694" x2="1" y2="756.9694" gradientTransform="matrix(11.0276 39.975 -39.975 11.0273 30903.2422 -8139.6323)">
			<stop  offset="0" style="stop-color:#FF7DAA"/>
			<stop  offset="1" style="stop-color:#FEA0C2"/>
		</linearGradient>
		<polygon class="st78" points="632.1,210.7 640,239.1 662.5,232.9 654.7,204.5 		"/>
	</g>
	<g class="st0">
		<defs>
			<rect id="SVGID_196_" width="1080" height="757"/>
		</defs>
		<clipPath id="SVGID_197_">
			<use xlink:href="#SVGID_196_"  style="overflow:visible;"/>
		</clipPath>
		<path class="st79" d="M723.3,259.2l-98.1-0.8c-2.7,0-5,2.2-4.9,4.9l0.5,66.1c0,2.8,2.3,5,5.1,4.9l96.8-3.6
			c2.6-0.1,4.7-2.2,4.8-4.8l0.8-61.7C728.2,261.5,726.1,259.2,723.3,259.2"/>
	</g>
	<g class="st0">
		<defs>
			<path id="SVGID_198_" d="M625.5,329.4l-0.5-66.1c0-0.1,0-0.1,0.1-0.1c0,0,0.1-0.1,0.1-0.1l98.1,0.8c0.1,0,0.1,0,0.1,0.1
				c0,0,0.1,0.1,0.1,0.1l-0.8,61.7c0,0.1-0.1,0.2-0.2,0.2l0,0l-96.9,3.6C625.6,329.6,625.5,329.5,625.5,329.4 M624.7,262.8
				c-0.1,0.1-0.2,0.3-0.2,0.5l0.5,66.1c0,0.4,0.3,0.7,0.7,0.7l96.9-3.6c0.4,0,0.7-0.3,0.7-0.7l0.8-61.7c0-0.2-0.1-0.4-0.2-0.5
				c-0.1-0.1-0.3-0.2-0.5-0.2l-98.1-0.8C625,262.6,624.8,262.7,624.7,262.8"/>
		</defs>
		<clipPath id="SVGID_199_">
			<use xlink:href="#SVGID_198_"  style="overflow:visible;"/>
		</clipPath>
		
			<linearGradient id="SVGID_200_" gradientUnits="userSpaceOnUse" x1="-2.819972e-05" y1="757" x2="1" y2="757" gradientTransform="matrix(-99.5619 -6.234000e-04 0 -99.5617 724.0152 75664.5703)">
			<stop  offset="0" style="stop-color:#DAE3FE"/>
			<stop  offset="1" style="stop-color:#E9EFFD"/>
		</linearGradient>
		<rect x="624.5" y="262.6" class="st80" width="99.6" height="67.5"/>
	</g>
	<g class="st0">
		<defs>
			<path id="SVGID_201_" d="M652.4,282.4c-3.8,1.7-6.8,4.8-8.3,8.7c-0.4,1.1-0.7,2.1-0.9,3.2c-0.1,0.6,0.3,1.1,0.9,1.2
				c0.6,0.1,1.1-0.3,1.2-0.9c0.2-1,0.4-1.9,0.8-2.8c1.3-3.4,3.9-6.1,7.2-7.6c3.3-1.5,7.1-1.6,10.5-0.3c3.4,1.3,6.1,3.9,7.6,7.2
				c1.5,3.3,1.6,7.1,0.3,10.5c-2.7,7-10.6,10.6-17.7,7.9c-2.3-0.9-4.3-2.4-5.9-4.3c-0.4-0.4-1-0.5-1.5-0.2c-0.5,0.4-0.5,1-0.2,1.5
				c1.7,2.2,4.1,4,6.7,5c1.9,0.7,3.8,1.1,5.6,1.1c6.3,0,12.3-3.8,14.7-10.1c1.5-3.9,1.4-8.2-0.3-12.1c-1.7-3.8-4.8-6.8-8.7-8.3
				c-1.8-0.7-3.8-1.1-5.7-1.1C656.6,281,654.5,281.5,652.4,282.4 M647,320.4L647,320.4L647,320.4z M633.8,305.2
				C633.8,305.2,633.8,305.2,633.8,305.2L633.8,305.2z M670.4,273.3L670.4,273.3L670.4,273.3z M665.5,271.9l4.9,1.9l-0.2,5.2
				l0.5,0.3c1.9,1.3,3.6,2.9,5,4.7l0.3,0.5l5.2-0.4l2.1,4.8l-3.8,3.6l0.1,0.6c0.4,2.3,0.5,4.6,0.2,6.8l-0.1,0.6l4,3.4l-1.9,4.9
				l-5.2-0.2l-0.3,0.5c-1.3,1.9-2.9,3.6-4.7,5l-0.5,0.3l0.4,5.2l-4.8,2.1l-3.6-3.8l-0.6,0.1c-2.3,0.4-4.6,0.5-6.8,0.2l-0.6-0.1
				l-3.4,4l-4.9-1.9l0.2-5.2l-0.5-0.3c-1.9-1.3-3.6-2.9-5-4.7l-0.3-0.5l-5.2,0.4l-2.1-4.8l3.8-3.6l-0.1-0.6
				c-0.4-2.3-0.5-4.6-0.2-6.8l0.1-0.6l-4-3.4l1.9-4.9l5.2,0.2l0.3-0.5c1.3-1.9,2.9-3.6,4.7-5l0.5-0.3l-0.4-5.2l4.8-2.1l3.6,3.8
				l0.6-0.1c2.3-0.4,4.6-0.5,6.8-0.2l0.6,0.1L665.5,271.9z M664.2,270.2l-2.9,3.5c-2.1-0.2-4.3-0.2-6.4,0.2l-3.1-3.3
				c-0.4-0.5-1.1-0.6-1.7-0.3l-5.6,2.5c-0.6,0.3-0.9,0.8-0.9,1.5l0.4,4.5c-1.7,1.3-3.1,2.9-4.4,4.6l-4.5-0.2c-0.6,0-1.2,0.4-1.4,0.9
				l-2.2,5.7c-0.2,0.6-0.1,1.2,0.4,1.6l3.5,2.9c-0.2,2.1-0.2,4.3,0.2,6.4l-3.3,3.1c-0.5,0.4-0.6,1.1-0.3,1.7l2.5,5.6
				c0.3,0.6,0.8,0.9,1.5,0.9l4.5-0.4c1.3,1.7,2.9,3.2,4.6,4.4l-0.2,4.5c0,0.6,0.4,1.2,0.9,1.4l5.7,2.2c0.2,0.1,0.3,0.1,0.5,0.1
				c0.4,0,0.8-0.2,1.1-0.5l2.9-3.5c2.1,0.2,4.3,0.2,6.4-0.2l3.1,3.3c0.4,0.5,1.1,0.6,1.7,0.3l5.6-2.5c0.6-0.3,0.9-0.8,0.9-1.4
				l-0.4-4.5c1.7-1.3,3.2-2.9,4.4-4.6l4.5,0.2c0.6,0,1.2-0.4,1.4-0.9l2.2-5.7c0.2-0.6,0.1-1.2-0.4-1.6l-3.5-2.9
				c0.2-2.1,0.2-4.3-0.2-6.4l3.3-3.1c0.5-0.4,0.6-1.1,0.3-1.6l-2.5-5.6c-0.3-0.6-0.8-0.9-1.5-0.9l-4.5,0.4c-1.3-1.7-2.9-3.2-4.6-4.4
				l0.2-4.5c0-0.6-0.4-1.2-0.9-1.4l-5.7-2.2c-0.2-0.1-0.3-0.1-0.5-0.1C664.9,269.7,664.5,269.9,664.2,270.2"/>
		</defs>
		<clipPath id="SVGID_202_">
			<use xlink:href="#SVGID_201_"  style="overflow:visible;"/>
		</clipPath>
		
			<linearGradient id="SVGID_203_" gradientUnits="userSpaceOnUse" x1="0" y1="757" x2="1" y2="757" gradientTransform="matrix(-54.3083 -3.400000e-04 0 -54.3082 685.8464 41408.1758)">
			<stop  offset="0" style="stop-color:#DAE3FE"/>
			<stop  offset="1" style="stop-color:#E9EFFD"/>
		</linearGradient>
		<rect x="631.4" y="269.7" class="st81" width="54.6" height="54.3"/>
	</g>
	<g class="st0">
		<defs>
			<path id="SVGID_204_" d="M656.2,300.4c-1-0.7-1.6-1.7-1.8-2.8c-0.2-1.2,0.1-2.3,0.7-3.3c0.7-1,1.7-1.6,2.8-1.8
				c0.3,0,0.5-0.1,0.8-0.1c0.9,0,1.8,0.3,2.5,0.8c2,1.4,2.4,4.1,1.1,6.1c-0.9,1.2-2.2,1.9-3.6,1.9
				C657.8,301.2,656.9,301,656.2,300.4 M657.6,290.5c-1.7,0.3-3.2,1.2-4.2,2.6c-1,1.4-1.4,3.1-1.1,4.8c0.3,1.7,1.2,3.2,2.6,4.2
				c1.1,0.8,2.4,1.2,3.7,1.2c2,0,4-0.9,5.3-2.7c1-1.4,1.4-3.1,1.1-4.8c-0.3-1.7-1.2-3.2-2.6-4.2c-1.1-0.8-2.4-1.2-3.7-1.2
				C658.3,290.4,658,290.4,657.6,290.5"/>
		</defs>
		<clipPath id="SVGID_205_">
			<use xlink:href="#SVGID_204_"  style="overflow:visible;"/>
		</clipPath>
		
			<linearGradient id="SVGID_206_" gradientUnits="userSpaceOnUse" x1="0" y1="757" x2="1" y2="757" gradientTransform="matrix(-12.9053 -8.080000e-05 0 -12.9052 665.1447 10066.1006)">
			<stop  offset="0" style="stop-color:#DAE3FE"/>
			<stop  offset="1" style="stop-color:#E9EFFD"/>
		</linearGradient>
		<rect x="652" y="290.4" class="st82" width="13.3" height="12.9"/>
	</g>
	<g class="st0">
		<defs>
			<path id="SVGID_207_" d="M702.8,275c-2.1,0.3-3.9,1.3-5.2,3c-0.3,0.4-0.6,0.9-0.9,1.4c-0.2,0.4,0,0.8,0.4,1c0.4,0.2,0.8,0,1-0.4
				c0.2-0.4,0.4-0.8,0.7-1.1c1-1.3,2.5-2.2,4.2-2.4c1.7-0.2,3.3,0.2,4.7,1.3c1.3,1,2.2,2.5,2.4,4.2c0.2,1.7-0.2,3.3-1.3,4.7
				s-2.5,2.2-4.2,2.4c-1.7,0.2-3.3-0.2-4.6-1.3c-0.9-0.7-1.6-1.6-2-2.7c-0.2-0.4-0.6-0.6-1-0.4c-0.4,0.2-0.6,0.6-0.4,1
				c0.5,1.3,1.4,2.5,2.5,3.4c1.4,1.1,3.1,1.7,4.8,1.7c0.3,0,0.7,0,1-0.1c2.1-0.3,3.9-1.3,5.2-3s1.9-3.7,1.6-5.8
				c-0.3-2.1-1.3-3.9-3-5.2c-1.4-1.1-3.1-1.7-4.8-1.7C703.4,274.9,703.1,274.9,702.8,275 M706.1,295L706.1,295L706.1,295z
				 M712.3,291.4L712.3,291.4C712.3,291.4,712.3,291.4,712.3,291.4 M715.5,279.8L715.5,279.8L715.5,279.8z M693.2,276.5
				C693.2,276.5,693.2,276.5,693.2,276.5L693.2,276.5z M693.3,275.8C693.3,275.8,693.3,275.8,693.3,275.8L693.3,275.8z M712.3,274.1
				L712.3,274.1C712.3,274.1,712.3,274.1,712.3,274.1 M697.4,275c0.8-0.7,1.8-1.2,2.8-1.6l0.4-0.1l0.5-2.4l2.1-0.3l1.1,2.2l0.4,0
				c1.1,0.1,2.1,0.4,3.1,0.9l0.4,0.2l2.1-1.3l1.7,1.3l-0.8,2.3l0.3,0.3c0.7,0.8,1.2,1.8,1.6,2.8l0.1,0.4l2.4,0.5l0.3,2.1l-2.2,1.1
				l0,0.4c-0.1,1.1-0.4,2.1-0.9,3.1l-0.2,0.4l1.3,2.1l-1.3,1.7l-2.3-0.8l-0.3,0.3c-0.8,0.7-1.8,1.2-2.8,1.6l-0.4,0.1l-0.5,2.4
				l-2.1,0.3l-1.1-2.2l-0.4,0c-1.1-0.1-2.1-0.4-3.1-0.9l-0.4-0.2l-2.1,1.3l-1.7-1.3l0.8-2.3l-0.3-0.3c-0.7-0.8-1.2-1.8-1.6-2.8
				l-0.1-0.4l-2.4-0.5l-0.3-2.1l2.2-1.1l0-0.4c0.1-1.1,0.4-2.1,0.9-3.1l0.2-0.4l-1.3-2.1l1.3-1.7l2.3,0.8L697.4,275z M703.5,269
				l-2.9,0.4c-0.4,0.1-0.7,0.4-0.8,0.8l-0.4,2c-0.9,0.4-1.7,0.8-2.5,1.4l-1.9-0.7c-0.4-0.1-0.8,0-1.1,0.3l-1.8,2.3
				c-0.3,0.3-0.3,0.8,0,1.1l1.1,1.7c-0.4,0.9-0.6,1.8-0.8,2.7l-1.8,0.9c-0.4,0.2-0.6,0.6-0.5,1l0.4,2.9c0.1,0.4,0.4,0.7,0.8,0.8
				l2,0.4c0.4,0.9,0.8,1.7,1.4,2.5l-0.7,1.9c-0.1,0.4,0,0.8,0.3,1.1l2.3,1.8c0.3,0.3,0.8,0.3,1.1,0l1.7-1.1c0.9,0.4,1.8,0.6,2.7,0.8
				l0.9,1.8c0.2,0.3,0.5,0.5,0.9,0.5c0,0,0.1,0,0.1,0l2.9-0.4c0.4-0.1,0.8-0.4,0.8-0.8l0.4-2c0.9-0.4,1.7-0.8,2.5-1.4l1.9,0.7
				c0.4,0.1,0.8,0,1.1-0.3l1.8-2.3c0.3-0.3,0.3-0.8,0-1.1l-1.1-1.7c0.4-0.9,0.6-1.8,0.8-2.7l1.8-0.9c0.4-0.2,0.6-0.6,0.5-1l-0.4-2.9
				c0-0.4-0.4-0.7-0.8-0.8l-2-0.4c-0.4-0.9-0.8-1.7-1.4-2.5l0.7-1.9c0.1-0.4,0-0.8-0.3-1.1l-2.3-1.8c-0.3-0.3-0.8-0.3-1.1-0.1
				l-1.7,1.1c-0.9-0.4-1.8-0.6-2.7-0.8l-0.9-1.8c-0.2-0.3-0.5-0.5-0.9-0.5C703.5,269,703.5,269,703.5,269"/>
		</defs>
		<clipPath id="SVGID_208_">
			<use xlink:href="#SVGID_207_"  style="overflow:visible;"/>
		</clipPath>
		
			<linearGradient id="SVGID_209_" gradientUnits="userSpaceOnUse" x1="0" y1="757" x2="1" y2="757" gradientTransform="matrix(-27.4854 -1.721000e-04 0 -27.4853 717.4176 21089.1328)">
			<stop  offset="0" style="stop-color:#DAE3FE"/>
			<stop  offset="1" style="stop-color:#E9EFFD"/>
		</linearGradient>
		<rect x="689.9" y="269" class="st83" width="27.6" height="27.5"/>
	</g>
	<g class="st0">
		<defs>
			<path id="SVGID_210_" d="M664,249.5c16.2,16.7,25.7,29.5,31.1,39.2l13.2-8.3c-7.5-29.6-32.4-50.9-32.4-50.9L664,249.5z"/>
		</defs>
		<clipPath id="SVGID_211_">
			<use xlink:href="#SVGID_210_"  style="overflow:visible;"/>
		</clipPath>
		
			<linearGradient id="SVGID_212_" gradientUnits="userSpaceOnUse" x1="0" y1="756.9971" x2="1" y2="756.9971" gradientTransform="matrix(167.5744 255.8188 -255.8182 167.5724 194310.4531 -126637.4844)">
			<stop  offset="0" style="stop-color:#8859E2"/>
			<stop  offset="1" style="stop-color:#9D6BFF"/>
		</linearGradient>
		<polygon class="st84" points="636.9,247.3 677.3,309 735.4,270.9 695,209.2 		"/>
	</g>
	<g class="st0">
		<defs>
			<path id="SVGID_213_" d="M707.4,281l-11.8,7.4c-0.3,0.2-0.4,0.6-0.2,1c7.9,14.3,6.8,21.4,6.3,23.3c-0.1,0.2-0.2,0.4-0.4,0.5
				l-11.7,5c-0.4,0.2-0.6,0.7-0.3,1c0.7,1.1,2.6,1.7,4.8,1.2c1.4-0.3,2.5-0.3,3.2-0.2c0.5,0.1,0.7,0.6,0.5,1.1
				c-1.4,2.2-3.4,6.5-4.7,9.1c-0.6,1.4-1.8,1.6-3.3,1.6l-2.9,0.1c0,0,7.8,4.7,12.8,1.8c4.9-2.8,7.4-16.5,7.5-17.4c0,0,0-0.1,0-0.1
				c4.1-12.4,3.9-24.3,1.3-35.1c-0.1-0.3-0.4-0.5-0.7-0.5C707.7,280.9,707.5,280.9,707.4,281"/>
		</defs>
		<clipPath id="SVGID_214_">
			<use xlink:href="#SVGID_213_"  style="overflow:visible;"/>
		</clipPath>
		
			<linearGradient id="SVGID_215_" gradientUnits="userSpaceOnUse" x1="0" y1="757.0241" x2="1" y2="757.0241" gradientTransform="matrix(20.6769 18.6093 -18.6092 20.6767 14749.0381 -15377.791)">
			<stop  offset="0" style="stop-color:#FF7DAA"/>
			<stop  offset="1" style="stop-color:#FEA0C2"/>
		</linearGradient>
		<polygon class="st85" points="659,311.8 700.4,349 739.2,305.9 697.8,268.7 		"/>
	</g>
	<g class="st0">
		<defs>
			<path id="SVGID_216_" d="M632.6,209.3c-0.3,5.4-1.5,9,4.8,10.1c6.3,1.1,11.6-2,14.5-7.5c0,0,4.5-8.4,3.5-11.8
				c-1-3.4-18-6.6-18-6.6S632.9,203.8,632.6,209.3"/>
		</defs>
		<clipPath id="SVGID_217_">
			<use xlink:href="#SVGID_216_"  style="overflow:visible;"/>
		</clipPath>
		
			<linearGradient id="SVGID_218_" gradientUnits="userSpaceOnUse" x1="0" y1="756.975" x2="1" y2="756.975" gradientTransform="matrix(-19.2985 38.9415 -38.9417 -19.2988 30136.7344 14785.1387)">
			<stop  offset="0" style="stop-color:#FF7DAA"/>
			<stop  offset="1" style="stop-color:#FEA0C2"/>
		</linearGradient>
		<polygon class="st86" points="636.1,183.4 620.4,215.1 651.4,230.5 667.1,198.8 		"/>
	</g>
	<g class="st0">
		<defs>
			<path id="SVGID_219_" d="M635.5,182.2c-3.2,1.4-5.3,6.5-2.9,10.4c2.5,4,13.9,6.4,16.8,7.6c2.9,1.2-0.4,7.9-0.4,7.9h0.8h1.7
				c0.2,0,0.4,0.2,0.4,0.5l-0.3,4.8c0,0.2,0.1,0.4,0.3,0.4c0.7,0.2,2.7,0.4,6.1-1.4c3.3-1.8,2-3.1,1.2-3.6c-0.2-0.2-0.2-0.5,0-0.7
				c4.7-3.8,5.5-8.5,3.4-10.3c-1.2-1-2.1-0.9-2.7-0.5c-0.3,0.2-0.7,0-0.7-0.3c-0.1-5.4-5.3-8.5-13-9.9c-5.5-1-7.5-3-8.3-4.2
				c-0.2-0.3-0.7-0.2-0.8,0.1c-0.1,0.4-0.6,0.4-0.8,0.1l-0.3-0.5c-0.1-0.1-0.2-0.2-0.4-0.2C635.6,182.1,635.5,182.1,635.5,182.2"/>
		</defs>
		<clipPath id="SVGID_220_">
			<use xlink:href="#SVGID_219_"  style="overflow:visible;"/>
		</clipPath>
		
			<linearGradient id="SVGID_221_" gradientUnits="userSpaceOnUse" x1="0" y1="756.9702" x2="1" y2="756.9702" gradientTransform="matrix(-23.3693 30.0877 -30.0879 -23.3694 23431.1289 17877.6426)">
			<stop  offset="0" style="stop-color:#300A5D"/>
			<stop  offset="1" style="stop-color:#511F91"/>
		</linearGradient>
		<polygon class="st87" points="643.2,165.4 614.8,202 651.7,230.7 680.1,194.1 		"/>
	</g>
	<g class="st0">
		<defs>
			<path id="SVGID_222_" d="M649.5,209l0.8,2.9c2.4-0.2,6.9-5.8,3.9-7.7c-0.4-0.2-0.7-0.3-1-0.3C650.9,203.9,649.5,209,649.5,209"/>
		</defs>
		<clipPath id="SVGID_223_">
			<use xlink:href="#SVGID_222_"  style="overflow:visible;"/>
		</clipPath>
		
			<linearGradient id="SVGID_224_" gradientUnits="userSpaceOnUse" x1="0" y1="756.9767" x2="1" y2="756.9767" gradientTransform="matrix(-19.2985 38.9415 -38.9417 -19.2987 30144.877 14789.1758)">
			<stop  offset="0" style="stop-color:#FF7DAA"/>
			<stop  offset="1" style="stop-color:#FEA0C2"/>
		</linearGradient>
		<polygon class="st88" points="651,200.8 646.4,210.3 655.7,214.9 660.4,205.5 		"/>
	</g>
	<g class="st0">
		<defs>
			<path id="SVGID_225_" d="M584.7,187.9c-1.3,0.7-6,2.1-6,2.1l-11.2,2.1c-0.2,5.2,6.8,5.6,6.8,5.6c7.9-0.3,14-8.1,14-8.1v-7.5
				C585.6,182.4,584.7,187.9,584.7,187.9"/>
		</defs>
		<clipPath id="SVGID_226_">
			<use xlink:href="#SVGID_225_"  style="overflow:visible;"/>
		</clipPath>
		
			<linearGradient id="SVGID_227_" gradientUnits="userSpaceOnUse" x1="0" y1="757.0374" x2="1" y2="757.0374" gradientTransform="matrix(8.2708 22.4001 -22.4001 8.2706 17512.0801 -6134.5171)">
			<stop  offset="0" style="stop-color:#FF7DAA"/>
			<stop  offset="1" style="stop-color:#FEA0C2"/>
		</linearGradient>
		<polygon class="st89" points="562.2,184 569.8,204.6 593.3,195.9 585.8,175.3 		"/>
	</g>
	<g class="st0">
		<defs>
			<path id="SVGID_228_" d="M557.6,121.7c0,6.9,2.9,13.5,7.9,18.1c1.4,1.3,3.6,1.2,4.9-0.2c1.3-1.4,1.2-3.6-0.2-4.9
				c-3.6-3.3-5.7-8.1-5.7-13c0-9.7,7.9-17.7,17.7-17.7c9.7,0,17.7,7.9,17.7,17.7c0,7.6-4.8,14.3-11.9,16.7l-13.8,4.6
				c-1.8,0.6-2.8,2.6-2.2,4.4c0.5,1.5,1.9,2.4,3.3,2.4c0.4,0,0.7-0.1,1.1-0.2l13.9-4.6c10-3.4,16.7-12.8,16.7-23.3
				c0-13.6-11.1-24.7-24.7-24.7C568.6,97,557.6,108.1,557.6,121.7"/>
		</defs>
		<clipPath id="SVGID_229_">
			<use xlink:href="#SVGID_228_"  style="overflow:visible;"/>
		</clipPath>
		
			<linearGradient id="SVGID_230_" gradientUnits="userSpaceOnUse" x1="0" y1="757" x2="1" y2="757" gradientTransform="matrix(49.3604 0 0 -49.3604 557.5739 37489.1914)">
			<stop  offset="0" style="stop-color:#DAE3FE"/>
			<stop  offset="1" style="stop-color:#E9EFFD"/>
		</linearGradient>
		<rect x="557.6" y="97" class="st90" width="49.4" height="52.9"/>
	</g>
	<g class="st0">
		<defs>
			<path id="SVGID_231_" d="M588,150.2l-13.8,4.6c-1.8,0.6-2.8,2.6-2.2,4.4c0.5,1.5,1.9,2.4,3.3,2.4c0.4,0,0.7-0.1,1.1-0.2l13.8-4.6
				c1.8-0.6,2.8-2.6,2.2-4.4c-0.5-1.5-1.9-2.4-3.3-2.4C588.8,150,588.4,150.1,588,150.2"/>
		</defs>
		<clipPath id="SVGID_232_">
			<use xlink:href="#SVGID_231_"  style="overflow:visible;"/>
		</clipPath>
		
			<linearGradient id="SVGID_233_" gradientUnits="userSpaceOnUse" x1="0" y1="757" x2="1" y2="757" gradientTransform="matrix(20.8418 0 0 -20.8418 571.7995 15933.1152)">
			<stop  offset="0" style="stop-color:#DAE3FE"/>
			<stop  offset="1" style="stop-color:#E9EFFD"/>
		</linearGradient>
		<rect x="571.4" y="150" class="st91" width="21.7" height="11.6"/>
	</g>
	<g class="st0">
		<defs>
			<path id="SVGID_234_" d="M583.1,163.7l-3.9,1.3c-1.8,0.6-2.8,2.6-2.2,4.4c0.5,1.5,1.9,2.4,3.3,2.4c0.4,0,0.7-0.1,1.1-0.2l3.9-1.3
				c1.8-0.6,2.8-2.6,2.2-4.4c-0.5-1.5-1.9-2.4-3.3-2.4C583.8,163.6,583.4,163.6,583.1,163.7"/>
		</defs>
		<clipPath id="SVGID_235_">
			<use xlink:href="#SVGID_234_"  style="overflow:visible;"/>
		</clipPath>
		
			<linearGradient id="SVGID_236_" gradientUnits="userSpaceOnUse" x1="0" y1="757" x2="1" y2="757" gradientTransform="matrix(10.9171 0 0 -10.9171 576.7614 8431.959)">
			<stop  offset="0" style="stop-color:#DAE3FE"/>
			<stop  offset="1" style="stop-color:#E9EFFD"/>
		</linearGradient>
		<rect x="576.3" y="163.6" class="st92" width="11.8" height="8.3"/>
	</g>
	<g class="st0">
		<defs>
			<polygon id="SVGID_237_" points="664.5,631.9 713.9,594 705.6,583.6 656.3,621.7 			"/>
		</defs>
		<clipPath id="SVGID_238_">
			<use xlink:href="#SVGID_237_"  style="overflow:visible;"/>
		</clipPath>
		
			<linearGradient id="SVGID_239_" gradientUnits="userSpaceOnUse" x1="0" y1="757" x2="1" y2="757" gradientTransform="matrix(161.8454 594.1161 -594.1161 161.8454 450404.6875 -122005.9063)">
			<stop  offset="0" style="stop-color:#444B8C"/>
			<stop  offset="0.9964" style="stop-color:#26264F"/>
			<stop  offset="1" style="stop-color:#26264F"/>
		</linearGradient>
		<polygon class="st93" points="644.1,587 660.3,646.5 726.1,628.5 709.9,569 		"/>
	</g>
	<g class="st0">
		<defs>
			<polygon id="SVGID_240_" points="679.4,655.1 733.8,613.6 718.7,595 664.4,636.6 			"/>
		</defs>
		<clipPath id="SVGID_241_">
			<use xlink:href="#SVGID_240_"  style="overflow:visible;"/>
		</clipPath>
		
			<linearGradient id="SVGID_242_" gradientUnits="userSpaceOnUse" x1="0" y1="756.9999" x2="1" y2="756.9999" gradientTransform="matrix(161.8447 594.1136 -594.1136 161.8447 450411.4063 -122007.7344)">
			<stop  offset="0" style="stop-color:#444B8C"/>
			<stop  offset="0.9964" style="stop-color:#26264F"/>
			<stop  offset="1" style="stop-color:#26264F"/>
		</linearGradient>
		<polygon class="st94" points="649.2,599.1 669.2,672.7 749.1,650.9 729,577.4 		"/>
	</g>
	<g class="st0">
		<defs>
			<path id="SVGID_243_" d="M681.5,658.5l9,22.7c5.2,13.1,17.9,21.7,31.9,21.7h26.8c22.1,0,37.2-22.3,29-42.8l-3.7-9.3l-38.6-33.9
				L681.5,658.5z"/>
		</defs>
		<clipPath id="SVGID_244_">
			<use xlink:href="#SVGID_243_"  style="overflow:visible;"/>
		</clipPath>
		
			<linearGradient id="SVGID_245_" gradientUnits="userSpaceOnUse" x1="0" y1="756.9942" x2="1" y2="756.9942" gradientTransform="matrix(167.2818 614.0723 -614.0723 167.2818 465539.125 -126133)">
			<stop  offset="0" style="stop-color:#444B8C"/>
			<stop  offset="0.9964" style="stop-color:#26264F"/>
			<stop  offset="1" style="stop-color:#26264F"/>
		</linearGradient>
		<polygon class="st95" points="659.7,622.8 688.7,729.4 808.2,696.9 779.1,590.2 		"/>
	</g>
	<g class="st0">
		<defs>
			<polygon id="SVGID_246_" points="591.6,486.1 662,573.2 660.3,577.4 655.8,578.1 585.5,491.1 583,493.2 585.5,496.3 616.5,613.4 
				649.9,622.1 675.4,602.4 681.7,597.6 707.6,577.6 706.8,542.9 596.7,487.2 594.2,484.1 			"/>
		</defs>
		<clipPath id="SVGID_247_">
			<use xlink:href="#SVGID_246_"  style="overflow:visible;"/>
		</clipPath>
		
			<linearGradient id="SVGID_248_" gradientUnits="userSpaceOnUse" x1="0" y1="757.0143" x2="1" y2="757.0143" gradientTransform="matrix(161.8451 594.1149 -594.1149 161.8451 450389.0938 -122001.6484)">
			<stop  offset="0" style="stop-color:#444B8C"/>
			<stop  offset="0.9964" style="stop-color:#26264F"/>
			<stop  offset="1" style="stop-color:#26264F"/>
		</linearGradient>
		<polygon class="st96" points="547.9,493.6 591.6,653.7 742.6,612.6 699,452.5 		"/>
	</g>
</g>
</svg>
