<svg xmlns="http://www.w3.org/2000/svg" width="200" height="59.951" viewBox="0 0 200 59.951">
  <g id="Qg1gwL.tif" transform="translate(-167.868 -1912.999)">
    <g id="Group_36" data-name="Group 36" transform="translate(167.868 1912.999)">
      <path id="Path_185" data-name="Path 185" d="M291.03,1913c.987.2,1.981.373,2.957.615a12.453,12.453,0,0,1,1.914.651,8.372,8.372,0,0,1,5.425,7.695c.142,2.563.109,5.137.132,7.707.018,2.076.051,4.155-.01,6.231a8.159,8.159,0,0,0,1.758,5.353c1.306,1.716,1.274,1.779-.371,3.195-1.163,1-2.319,2.008-3.482,3.008-.92.792-1.454.832-2.292-.008-.858-.86-1.629-1.808-2.423-2.73-.232-.269-.413-.581-.637-.9-.651.582-1.233,1.133-1.847,1.646-3.52,2.948-7.573,3.451-11.821,2.219-3.282-.952-5.067-3.433-5.6-6.747-.681-4.225.252-7.954,3.707-10.774a13.024,13.024,0,0,1,6.167-2.646c2.253-.385,4.529-.642,6.794-.953.433-.059.867-.107,1.306-.161a27.823,27.823,0,0,0-.02-3.152c-.308-2.645-2.163-4-4.888-3.67a4.626,4.626,0,0,0-4.223,3.573c-.31,1.072-.664,1.294-1.742,1.167-1.653-.2-3.309-.368-4.965-.548-1.148-.124-1.483-.595-1.221-1.737,1.061-4.629,4.145-7.214,8.586-8.387,1.1-.29,2.238-.432,3.359-.643Zm1.716,18.427a14.4,14.4,0,0,0-5.169.613,5.515,5.515,0,0,0-3.919,6.684,3.732,3.732,0,0,0,5.831,2.706,6.2,6.2,0,0,0,2.62-3.279C292.961,1935.985,292.724,1933.72,292.747,1931.426Z" transform="translate(-193.374 -1912.999)" fill="#b1a9cb"/>
      <path id="Path_186" data-name="Path 186" d="M184.274,1913c1.017.2,2.035.392,3.048.608a8.792,8.792,0,0,1,1.118.336c4.048,1.439,6.212,4.334,6.288,8.624.077,4.362.078,8.725.039,13.088a8.5,8.5,0,0,0,1.88,5.709,6.335,6.335,0,0,1,.543.761,1.154,1.154,0,0,1-.228,1.659c-1.467,1.245-2.907,2.521-4.374,3.767-.809.686-1.363.714-2.114-.05-1.122-1.142-2.159-2.369-3.24-3.57-.658.572-1.372,1.258-2.151,1.858a12.127,12.127,0,0,1-11.536,1.838c-3.281-1.007-4.931-3.549-5.517-6.837-.04-.227-.107-.448-.161-.672v-2.805a4.771,4.771,0,0,0,.139-.517,10.225,10.225,0,0,1,6.129-8.073,25.114,25.114,0,0,1,7.777-1.851c1.385-.171,2.773-.314,4.265-.482-.071-1.271-.063-2.468-.221-3.643a3.474,3.474,0,0,0-2.908-3.059,4.909,4.909,0,0,0-6.143,3.574,1.265,1.265,0,0,1-1.608,1.069c-1.628-.187-3.258-.364-4.886-.546-1.407-.157-1.714-.59-1.376-1.949,1.119-4.507,4.173-7.031,8.516-8.185,1.125-.3,2.292-.437,3.441-.649Zm1.847,18.2a44.58,44.58,0,0,0-4.873.776c-3.169.862-4.585,3.01-4.3,6.282a3.771,3.771,0,0,0,2.077,3.417,4.021,4.021,0,0,0,4.2-.485,6.272,6.272,0,0,0,2.173-2.878C186.3,1936.1,186.084,1933.786,186.121,1931.194Z" transform="translate(-167.868 -1912.999)" fill="#b1a9cb"/>
      <path id="Path_187" data-name="Path 187" d="M422.734,1947.215a1.933,1.933,0,0,1-1.711.7c-1.744-.025-3.489,0-5.233-.011-1.2-.007-1.54-.345-1.54-1.528,0-5.869.021-11.738-.007-17.606a29.673,29.673,0,0,0-.285-4.264c-.3-1.99-1.4-3.1-3.015-3.3a3.958,3.958,0,0,0-4.09,2.385,11.052,11.052,0,0,0-1.013,4.836q-.021,8.764-.027,17.528c0,1.679-.267,1.946-1.946,1.948-1.64,0-3.28,0-4.92,0-1.272-.005-1.646-.37-1.646-1.613q-.007-15.347-.008-30.694c0-1.147.4-1.543,1.549-1.548q2.5-.01,5,0c1.125,0,1.508.386,1.511,1.489,0,1.348,0,2.7.126,4.084.221-.448.444-.895.66-1.344,2.3-4.8,6.713-5.648,10.744-4.415,3.465,1.06,5.025,3.727,5.534,7.135.118.789.214,1.581.32,2.372Z" transform="translate(-222.733 -1913.085)" fill="#b1a9cb"/>
      <path id="Path_188" data-name="Path 188" d="M220.762,1919.055c1.61-3.575,4.193-5.617,8.207-5.662,4.068-.046,6.486,2.2,8.058,5.811.237-.469.407-.824.591-1.171a9.212,9.212,0,0,1,14.365-2.1,8.756,8.756,0,0,1,2.331,6.183c.067,1.685.026,3.374.025,5.062q0,9.5-.007,19.008c0,1.377-.333,1.721-1.688,1.726-1.771.007-3.541.011-5.312,0-1.117-.008-1.506-.4-1.506-1.511q0-8.687.01-17.372c0-1.35-.006-2.7-.07-4.049-.1-2.146-1.064-3.324-2.865-3.6a4.062,4.062,0,0,0-4.593,2.648,10.353,10.353,0,0,0-.494,2.977c-.055,6.336-.046,12.672-.057,19.008,0,1.634-.265,1.9-1.909,1.9q-2.421,0-4.842,0c-1.436,0-1.764-.323-1.763-1.73,0-6.18.029-12.36,0-18.54a17.377,17.377,0,0,0-.38-3.7,3.142,3.142,0,0,0-3.188-2.681,3.4,3.4,0,0,0-3.722,2.234,11.9,11.9,0,0,0-.707,3.712c-.085,6.231-.064,12.464-.081,18.7,0,.26.005.52-.008.779a1.109,1.109,0,0,1-1.157,1.206c-2.056.026-4.113.033-6.169,0a1.122,1.122,0,0,1-1.164-1.2c-.011-.181,0-.364,0-.546q0-15.152,0-30.3c0-1.462.322-1.782,1.786-1.783,1.615,0,3.228-.008,4.843,0,1.061.006,1.465.411,1.471,1.459C220.768,1916.695,220.762,1917.875,220.762,1919.055Z" transform="translate(-178.579 -1913.09)" fill="#b1a9cb"/>
      <path id="Path_189" data-name="Path 189" d="M382.418,1931.2a20.986,20.986,0,0,1-3.193,11.456,13.026,13.026,0,0,1-22.6-1.289,23.773,23.773,0,0,1-2.213-12.643,20.325,20.325,0,0,1,2.089-7.924c2.416-4.7,6.209-7.311,11.571-7.376,5.436-.065,9.4,2.421,11.95,7.173A22.759,22.759,0,0,1,382.418,1931.2Zm-19.157-.741.306.021c0,1.271-.072,2.548.017,3.813a13.222,13.222,0,0,0,1.394,5.7,3.778,3.778,0,0,0,6.647.213,9.594,9.594,0,0,0,1.133-2.87,35.121,35.121,0,0,0-.482-14.505,3.6,3.6,0,0,0-3.653-2.937,3.83,3.83,0,0,0-3.981,2.413,5.945,5.945,0,0,0-.6,1.676C363.739,1926.134,363.514,1928.3,363.261,1930.456Z" transform="translate(-212.458 -1913.1)" fill="#b1a9cb"/>
      <path id="Path_190" data-name="Path 190" d="M258.965,1985.07c-14.086-.064-26.251-2.978-37.659-8.932a76.268,76.268,0,0,1-15.249-10.515c-.215-.189-.506-.355-.6-.6-.142-.346-.305-.86-.148-1.1a1.12,1.12,0,0,1,1.062-.191c1.266.6,2.476,1.321,3.718,1.977a98.52,98.52,0,0,0,27.013,9.613c4.524.894,9.114,1.52,13.7,2.009a81.349,81.349,0,0,0,14.03.2,106.421,106.421,0,0,0,27.586-5.446c2.211-.759,4.373-1.659,6.568-2.468a2.36,2.36,0,0,1,1.338-.235,1.86,1.86,0,0,1,1.164.953,1.926,1.926,0,0,1-.476,1.433,6.336,6.336,0,0,1-1.42,1.081,68.7,68.7,0,0,1-20.974,9.385,80.858,80.858,0,0,1-13.471,2.471C262.688,1984.949,260.216,1985,258.965,1985.07Z" transform="translate(-176.805 -1925.12)" fill="#b1a9cb"/>
      <path id="Path_191" data-name="Path 191" d="M330.179,1936.853c2.15.254,4.241.353,6.261.785a33.3,33.3,0,0,1,4.835,1.691,2.238,2.238,0,0,1,1.463,2.34c-.018,1.376.005,2.752-.008,4.128-.012,1.275-.728,1.7-1.884,1.166a23.31,23.31,0,0,0-20.847.085c-.914.438-1.674.067-1.689-.942-.031-1.971-.051-3.951.111-5.913a4.984,4.984,0,0,1,.978-2.242c3.722-5.384,7.488-10.738,11.241-16.1.172-.246.336-.5.6-.881h-.992q-4.607,0-9.216,0c-1.256,0-1.571-.322-1.574-1.561,0-1.3-.008-2.6,0-3.895.008-.941.38-1.328,1.326-1.329q10-.012,20,0c.936,0,1.325.406,1.336,1.334a20.177,20.177,0,0,1-.041,3.42,6.276,6.276,0,0,1-1.057,2.442c-2.6,3.791-5.269,7.536-7.912,11.3C332.124,1934.073,331.146,1935.473,330.179,1936.853Z" transform="translate(-203.84 -1913.281)" fill="#b1a9cb"/>
      <path id="Path_192" data-name="Path 192" d="M327.307,1964.548c-2.722.264-5.355.532-7.99.756-.28.024-.582-.212-.873-.327.158-.3.236-.752.486-.89a27.052,27.052,0,0,1,4.09-2.057,22.878,22.878,0,0,1,12.212-.784c2.608.526,3.04,1.068,2.773,3.721a23.631,23.631,0,0,1-4.819,12.534,15.088,15.088,0,0,1-2.069,2.108c-.277.237-.784.206-1.187.3a3.98,3.98,0,0,1,.055-1.074c.958-2.875,1.99-5.725,2.9-8.614a10.765,10.765,0,0,0,.4-2.911,1.87,1.87,0,0,0-1.662-2.2C330.193,1964.81,328.713,1964.721,327.307,1964.548Z" transform="translate(-203.877 -1924.421)" fill="#b1a9cb"/>
    </g>
  </g>
</svg>
