<svg xmlns="http://www.w3.org/2000/svg" width="1549.136" height="1526.422" viewBox="0 0 1549.136 1526.422">
  <g id="Group_4652" data-name="Group 4652" transform="translate(587.286 280.453)">
    <g id="Group_4650" data-name="Group 4650" opacity="0.05">
      <path id="Path_2566" data-name="Path 2566" d="M150.06,571.642a46.455,46.455,0,1,1,52.337,16.17l-.118.034L-277.974,751.711" fill="none" stroke="#482572" stroke-linecap="round" stroke-linejoin="round" stroke-width="11.158"/>
      <path id="Path_2567" data-name="Path 2567" d="M134.478,576.873a63.017,63.017,0,1,1,73.378,25.672l-.173.055L-229.6,751.711" fill="none" stroke="#482572" stroke-linecap="round" stroke-linejoin="round" stroke-width="11.158" opacity="0.977"/>
      <path id="Path_2568" data-name="Path 2568" d="M118.9,582.108a79.207,79.207,0,0,1,68.38-120.649,80.086,80.086,0,0,1,26.035,155.822l-.224.072L-181.166,751.711" fill="none" stroke="#482572" stroke-linecap="round" stroke-linejoin="round" stroke-width="11.158" opacity="0.953"/>
      <path id="Path_2569" data-name="Path 2569" d="M103.322,587.343c-7.683-13.261-12.927-31.257-12.927-46.966a96.887,96.887,0,1,1,128.383,91.636l-.283.093-351.172,119.6" fill="none" stroke="#482572" stroke-linecap="round" stroke-linejoin="round" stroke-width="11.158" opacity="0.93"/>
      <path id="Path_2570" data-name="Path 2570" d="M87.74,592.574c-8.258-15.029-14.149-35.765-14.149-53.352A113.689,113.689,0,1,1,224.237,646.75l-.338.11L-84.138,751.711" fill="none" stroke="#482572" stroke-linecap="round" stroke-linejoin="round" stroke-width="11.158" opacity="0.907"/>
      <path id="Path_2571" data-name="Path 2571" d="M72.162,597.809c-8.838-16.8-15.371-40.277-15.371-59.745,0-71.949,58.54-130.485,130.489-130.485a130.5,130.5,0,0,1,42.421,253.9l-.394.131-264.846,90.1" fill="none" stroke="#482572" stroke-linecap="round" stroke-linejoin="round" stroke-width="11.158" opacity="0.884"/>
      <path id="Path_2572" data-name="Path 2572" d="M56.584,603.039c-9.417-18.563-16.6-44.784-16.6-66.13,0-81.213,66.079-147.288,147.293-147.288a147.3,147.3,0,0,1,47.88,286.6l-.449.148L13.11,751.711" fill="none" stroke="#482572" stroke-linecap="round" stroke-linejoin="round" stroke-width="11.158" opacity="0.86"/>
      <path id="Path_2573" data-name="Path 2573" d="M41.006,608.274c-10-20.331-17.823-49.3-17.823-72.523,0-90.479,73.619-164.089,164.1-164.089a164.1,164.1,0,0,1,53.339,319.289l-.5.169L61.81,751.711" fill="none" stroke="#482572" stroke-linecap="round" stroke-linejoin="round" stroke-width="11.158" opacity="0.837"/>
      <path id="Path_2574" data-name="Path 2574" d="M25.424,613.509C14.852,591.407,6.383,559.7,6.383,534.6c0-99.743,81.154-180.893,180.9-180.893a180.9,180.9,0,0,1,58.8,351.984l-.558.186L110.561,751.711" fill="none" stroke="#482572" stroke-linecap="round" stroke-linejoin="round" stroke-width="11.158" opacity="0.814"/>
      <path id="Path_2575" data-name="Path 2575" d="M9.846,618.74c-11.151-23.866-20.268-58.316-20.268-85.3,0-109.008,88.694-197.693,197.7-197.693a197.705,197.705,0,0,1,64.261,384.674l-.613.208-91.569,31.084" fill="none" stroke="#482572" stroke-linecap="round" stroke-linejoin="round" stroke-width="11.158" opacity="0.791"/>
      <path id="Path_2576" data-name="Path 2576" d="M-5.732,623.975c-11.73-25.638-21.49-62.828-21.49-91.692,0-118.276,96.229-214.5,214.5-214.5A214.511,214.511,0,0,1,257,735.156l-.668.224L208.2,751.711" fill="none" stroke="#482572" stroke-linecap="round" stroke-linejoin="round" stroke-width="11.158" opacity="0.767"/>
      <path id="Path_2577" data-name="Path 2577" d="M-21.314,629.206c-12.305-27.4-22.712-67.336-22.712-98.081,0-127.538,103.769-231.3,231.306-231.3a231.313,231.313,0,0,1,75.183,450.065l-.727.245-4.651,1.578" fill="none" stroke="#482572" stroke-linecap="round" stroke-linejoin="round" stroke-width="11.158" opacity="0.744"/>
      <path id="Path_2578" data-name="Path 2578" d="M-36.892,634.441C-49.777,605.272-60.83,562.593-60.83,529.97c0-136.806,111.308-248.1,248.11-248.1A248.119,248.119,0,0,1,298.626,751.711" fill="none" stroke="#482572" stroke-linecap="round" stroke-linejoin="round" stroke-width="11.158" opacity="0.721"/>
      <path id="Path_2579" data-name="Path 2579" d="M-52.47,639.671c-13.464-30.936-25.16-76.355-25.16-110.86,0-146.066,118.843-264.9,264.91-264.9a264.924,264.924,0,0,1,143.2,487.8" fill="none" stroke="#482572" stroke-linecap="round" stroke-linejoin="round" stroke-width="11.158" opacity="0.698"/>
      <path id="Path_2580" data-name="Path 2580" d="M-68.052,644.906c-14.039-32.7-26.382-80.867-26.382-117.249,0-155.335,126.382-281.71,281.714-281.71a281.724,281.724,0,0,1,178.5,499.676" fill="none" stroke="#482572" stroke-linecap="round" stroke-linejoin="round" stroke-width="11.158" opacity="0.674"/>
      <path id="Path_2581" data-name="Path 2581" d="M-83.63,650.141c-14.619-34.475-27.6-85.378-27.6-123.643,0-164.6,133.918-298.509,298.514-298.509A298.526,298.526,0,0,1,375.624,758.121" fill="none" stroke="#482572" stroke-linecap="round" stroke-linejoin="round" stroke-width="11.158" opacity="0.651"/>
      <path id="Path_2582" data-name="Path 2582" d="M-99.208,655.372c-15.2-36.239-28.831-89.886-28.831-130.028,0-173.865,141.458-315.314,315.319-315.314a315.329,315.329,0,0,1,197.7,560.98" fill="none" stroke="#482572" stroke-linecap="round" stroke-linejoin="round" stroke-width="11.158" opacity="0.628"/>
      <path id="Path_2583" data-name="Path 2583" d="M-114.786,660.607c-15.777-38.011-30.057-94.4-30.057-136.422,0-183.129,149-332.118,332.123-332.118a332.134,332.134,0,0,1,197.7,599.011" fill="none" stroke="#482572" stroke-linecap="round" stroke-linejoin="round" stroke-width="11.158" opacity="0.605"/>
      <path id="Path_2584" data-name="Path 2584" d="M-130.369,665.837c-16.351-39.773-31.274-98.9-31.274-142.806,0-192.394,156.532-348.922,348.923-348.922a348.939,348.939,0,0,1,197.7,636.459" fill="none" stroke="#482572" stroke-linecap="round" stroke-linejoin="round" stroke-width="11.158" opacity="0.581"/>
      <path id="Path_2585" data-name="Path 2585" d="M-145.947,671.072c-16.931-41.545-32.5-103.413-32.5-149.2,0-201.659,164.072-365.722,365.727-365.722a365.744,365.744,0,0,1,197.7,673.442" fill="none" stroke="#482572" stroke-linecap="round" stroke-linejoin="round" stroke-width="11.158" opacity="0.558"/>
      <path id="Path_2586" data-name="Path 2586" d="M-161.524,676.307c-17.511-43.313-33.723-107.925-33.723-155.589,0-210.924,171.607-382.527,382.527-382.527a382.546,382.546,0,0,1,197.7,710.036" fill="none" stroke="#482572" stroke-linecap="round" stroke-linejoin="round" stroke-width="11.158" opacity="0.535"/>
      <path id="Path_2587" data-name="Path 2587" d="M-177.107,681.538c-18.085-45.076-34.944-112.433-34.944-161.979,0-220.188,179.146-399.326,399.331-399.326,106.665,0,206.928,41.528,282.353,116.944,75.441,75.433,116.982,175.717,116.982,282.382a399.518,399.518,0,0,1-201.634,347" fill="none" stroke="#482572" stroke-linecap="round" stroke-linejoin="round" stroke-width="11.158" opacity="0.512"/>
      <path id="Path_2588" data-name="Path 2588" d="M-192.685,686.773c-18.664-46.848-36.171-116.945-36.171-168.368,0-229.453,186.682-416.131,416.136-416.131,111.151,0,215.635,43.275,294.235,121.867s121.9,183.108,121.9,294.26A416.293,416.293,0,0,1,384.981,884.61" fill="none" stroke="#482572" stroke-linecap="round" stroke-linejoin="round" stroke-width="11.158" opacity="0.488"/>
      <path id="Path_2589" data-name="Path 2589" d="M-208.263,692c-19.244-48.612-37.393-121.453-37.393-174.758,0-238.718,194.217-432.935,432.936-432.935,115.638,0,224.341,45.026,306.113,126.789C575.181,292.88,620.22,401.6,620.22,517.246a433.11,433.11,0,0,1-235.239,385.2" fill="none" stroke="#482572" stroke-linecap="round" stroke-linejoin="round" stroke-width="11.158" opacity="0.465"/>
      <path id="Path_2590" data-name="Path 2590" d="M-223.845,697.239c-19.819-50.383-38.615-125.964-38.615-181.151,0-247.979,201.757-449.735,449.74-449.735,120.124,0,233.048,46.771,317.995,131.71,84.964,84.952,131.749,197.9,131.749,318.025A449.9,449.9,0,0,1,384.981,920.079" fill="none" stroke="#482572" stroke-linecap="round" stroke-linejoin="round" stroke-width="11.158" opacity="0.442"/>
      <path id="Path_2591" data-name="Path 2591" d="M-239.423,702.474C-259.821,650.323-279.26,572-279.26,514.933c0-257.247,209.292-466.539,466.54-466.539,124.615,0,241.754,48.518,329.877,136.628,88.136,88.132,136.667,205.292,136.667,329.911A466.723,466.723,0,0,1,384.981,937.555" fill="none" stroke="#482572" stroke-linecap="round" stroke-linejoin="round" stroke-width="11.158" opacity="0.419"/>
      <path id="Path_2592" data-name="Path 2592" d="M-255,707.7c-20.978-53.918-41.063-134.983-41.063-193.929,0-266.513,216.831-483.34,483.344-483.34,129.1,0,250.461,50.265,341.755,141.551,91.311,91.3,141.593,212.683,141.593,341.789a483.5,483.5,0,0,1-285.647,441.1" fill="none" stroke="#482572" stroke-linecap="round" stroke-linejoin="round" stroke-width="11.158" opacity="0.395"/>
      <path id="Path_2593" data-name="Path 2593" d="M-270.579,712.939c-21.557-55.685-42.289-139.5-42.289-200.319,0-275.777,224.371-500.143,500.148-500.143,133.588,0,259.172,52.011,353.637,146.468C635.4,253.423,687.428,379.024,687.428,512.62A500.3,500.3,0,0,1,384.981,972.064" fill="none" stroke="#482572" stroke-linecap="round" stroke-linejoin="round" stroke-width="11.158" opacity="0.372"/>
      <path id="Path_2594" data-name="Path 2594" d="M-286.161,718.17c-22.132-57.453-43.507-144-43.507-206.708C-329.668,226.42-97.762-5.482,187.28-5.482c138.079,0,267.878,53.762,365.515,151.39,97.663,97.65,151.437,227.471,151.437,365.554A517.1,517.1,0,0,1,384.981,989.143" fill="none" stroke="#482572" stroke-linecap="round" stroke-linejoin="round" stroke-width="11.158" opacity="0.349"/>
      <path id="Path_2595" data-name="Path 2595" d="M-301.739,723.405c-22.711-59.221-44.734-148.515-44.734-213.1C-346.473,216-107.027-23.445,187.28-23.445c142.565,0,276.585,55.513,377.4,156.313,100.834,100.825,156.359,234.87,156.359,377.439a533.908,533.908,0,0,1-336.056,495.818" fill="none" stroke="#482572" stroke-linecap="round" stroke-linejoin="round" stroke-width="11.158" opacity="0.326"/>
      <path id="Path_2596" data-name="Path 2596" d="M-317.317,728.636c-23.291-60.985-45.96-153.023-45.96-219.487C-363.273,205.577-116.292-41.4,187.28-41.4c147.052,0,285.291,57.258,389.28,161.234,104.005,104,161.277,242.262,161.277,389.318A550.705,550.705,0,0,1,384.981,1023.01" fill="none" stroke="#482572" stroke-linecap="round" stroke-linejoin="round" stroke-width="11.158" opacity="0.302"/>
      <path id="Path_2597" data-name="Path 2597" d="M-332.9,733.87c-23.866-62.755-47.178-157.534-47.178-225.876,0-312.836,254.521-567.356,567.357-567.356,151.543,0,294,59,401.158,166.156,107.185,107.169,166.2,249.654,166.2,401.2a567.51,567.51,0,0,1-369.66,531.829" fill="none" stroke="#482572" stroke-linecap="round" stroke-linejoin="round" stroke-width="11.158" opacity="0.279"/>
      <path id="Path_2598" data-name="Path 2598" d="M-348.477,739.1c-24.441-64.523-48.4-162.046-48.4-232.269,0-322.1,262.06-584.157,584.161-584.157,156.029,0,302.7,60.752,413.04,171.075C710.677,204.1,771.441,350.8,771.441,506.836a584.3,584.3,0,0,1-386.46,549.715" fill="none" stroke="#482572" stroke-linecap="round" stroke-linejoin="round" stroke-width="11.158" opacity="0.256"/>
      <path id="Path_2599" data-name="Path 2599" d="M-364.055,744.336c-25.02-66.291-49.626-166.554-49.626-238.655,0-331.369,269.6-600.96,600.961-600.96,160.515,0,311.411,62.5,424.918,176C725.73,194.236,788.245,345.157,788.245,505.681A601.112,601.112,0,0,1,384.981,1073.22" fill="none" stroke="#482572" stroke-linecap="round" stroke-linejoin="round" stroke-width="11.158" opacity="0.233"/>
      <path id="Path_2600" data-name="Path 2600" d="M-379.637,749.571c-25.6-68.058-50.848-171.061-50.848-245.048,0-340.631,277.134-617.761,617.765-617.761,165,0,320.118,64.244,436.8,180.914C740.788,184.371,805.049,339.512,805.049,504.523a617.918,617.918,0,0,1-416.994,584.258l-1.991.68-1.083.364" fill="none" stroke="#482572" stroke-linecap="round" stroke-linejoin="round" stroke-width="11.158" opacity="0.209"/>
      <path id="Path_2601" data-name="Path 2601" d="M-395.215,754.8c-26.175-69.826-52.075-175.569-52.075-251.434,0-349.9,284.675-634.569,634.57-634.569,169.493,0,328.824,66,448.683,185.841C755.842,174.506,821.849,333.867,821.849,503.368a634.726,634.726,0,0,1-428.33,600.149l-2.051.7-6.487,2.178" fill="none" stroke="#482572" stroke-linecap="round" stroke-linejoin="round" stroke-width="11.158" opacity="0.186"/>
      <path id="Path_2602" data-name="Path 2602" d="M-410.793,760.037c-26.754-71.594-53.3-180.081-53.3-257.827,0-359.16,292.21-651.369,651.37-651.369,173.979,0,337.531,67.741,460.56,190.758C770.9,164.641,838.654,328.222,838.654,502.21a651.527,651.527,0,0,1-439.676,616.039l-2.106.719-11.891,3.992" fill="none" stroke="#482572" stroke-linecap="round" stroke-linejoin="round" stroke-width="11.158" opacity="0.163"/>
      <path id="Path_2603" data-name="Path 2603" d="M-426.371,765.272c-.093-.246-.186-.495-.275-.745-27.24-73.369-54.248-184.115-54.248-263.472,0-368.428,299.749-668.173,668.174-668.173,178.466,0,346.237,69.488,472.443,195.68,126.23,126.214,195.731,294.015,195.731,472.493,0,285.275-181.249,539.216-451.013,631.931l-2.161.736-17.3,5.8" fill="none" stroke="#482572" stroke-linecap="round" stroke-linejoin="round" stroke-width="11.158" opacity="0.14"/>
      <path id="Path_2604" data-name="Path 2604" d="M-441.953,770.5q-1.1-2.949-2.191-5.975c-27.155-75.094-53.55-185.256-53.55-264.63,0-377.69,307.284-684.974,684.974-684.974,182.956,0,354.944,71.239,484.321,200.6C801.007,144.915,872.258,316.932,872.258,499.9c0,292.45-185.807,552.776-462.358,647.821l-2.216.757-22.7,7.616" fill="none" stroke="#482572" stroke-linecap="round" stroke-linejoin="round" stroke-width="11.158" opacity="0.116"/>
      <path id="Path_2605" data-name="Path 2605" d="M-457.531,775.737c-28.488-76.9-56.967-193.612-56.967-276.995,0-386.958,314.824-701.777,701.778-701.777,187.443,0,363.655,72.984,496.2,205.52,132.578,132.564,205.579,308.8,205.579,496.257,0,299.622-190.365,566.333-473.7,663.713l-2.271.773-28.107,9.43" fill="none" stroke="#482572" stroke-linecap="round" stroke-linejoin="round" stroke-width="11.158" opacity="0.093"/>
      <path id="Path_2606" data-name="Path 2606" d="M-473.109,780.968C-502.176,702.3-531.3,582.848-531.3,497.584c0-396.219,322.359-718.578,718.582-718.578,191.929,0,372.361,74.731,508.085,210.438,135.753,135.74,210.5,316.2,210.5,508.14,0,306.8-194.923,579.894-485.039,679.6l-2.326.8-33.516,11.239" fill="none" stroke="#482572" stroke-linecap="round" stroke-linejoin="round" stroke-width="11.158" opacity="0.07"/>
      <path id="Path_2607" data-name="Path 2607" d="M-488.691,786.2C-518.333,705.772-548.1,583.571-548.1,496.429c0-405.487,329.894-735.382,735.382-735.386,196.416,0,381.068,76.482,519.963,215.364C846.172,115.319,922.666,300,922.666,496.429c0,313.97-199.481,593.451-496.384,695.494l-2.381.812-38.92,13.045" fill="none" stroke="#482572" stroke-linecap="round" stroke-linejoin="round" stroke-width="11.158" opacity="0.047"/>
      <path id="Path_2608" data-name="Path 2608" d="M-504.269,791.434c-30.222-82.2-60.638-207.14-60.638-296.163,0-414.753,337.434-752.186,752.187-752.186,200.907,0,389.775,78.228,531.845,220.286,142.1,142.083,220.341,330.98,220.341,531.9,0,321.145-204.035,607.011-507.725,711.385l-2.436.833-44.324,14.854" fill="none" stroke="#482572" stroke-linecap="round" stroke-linejoin="round" stroke-width="11.158" opacity="0.023"/>
      <path id="Path_2609" data-name="Path 2609" d="M-519.847,796.669c-30.8-83.967-61.86-211.652-61.86-302.553,0-424.017,344.969-768.99,768.987-768.99,205.393,0,398.481,79.974,543.723,225.2C876.279,95.589,956.271,288.706,956.271,494.116c0,328.317-208.595,620.573-519.067,727.276l-2.491.85-49.732,16.665" fill="none" stroke="#482572" stroke-linecap="round" stroke-linejoin="round" stroke-width="11.158" opacity="0"/>
      <path id="Path_2610" data-name="Path 2610" d="M197.119,572.467" fill="none" stroke="#482572" stroke-linecap="round" stroke-linejoin="round" stroke-width="11.158"/>
      <g id="Group_4649" data-name="Group 4649">
        <line id="Line_27" data-name="Line 27" x1="633.118" y2="216.023" transform="translate(-455.768 579.092)" fill="none" stroke="#482572" stroke-linecap="round" stroke-linejoin="round" stroke-width="11.158"/>
      </g>
    </g>
    <g id="Group_4651" data-name="Group 4651">
      <path id="Path_2611" data-name="Path 2611" d="M166.737,566.057a30.248,30.248,0,1,1,30.382,6.41l-19.769,6.625" fill="none" stroke="#f72556" stroke-linecap="round" stroke-linejoin="round" stroke-width="11.158"/>
      <line id="Line_28" data-name="Line 28" x1="19.769" y2="6.625" transform="translate(177.35 589.401)" fill="none" stroke="#f72556" stroke-linecap="round" stroke-linejoin="round" stroke-width="11.158"/>
      <line id="Line_29" data-name="Line 29" x1="5.592" y2="1.875" transform="translate(184.438 608.71)" fill="none" stroke="#f72556" stroke-linecap="round" stroke-linejoin="round" stroke-width="11.158"/>
    </g>
  </g>
</svg>
