<svg xmlns="http://www.w3.org/2000/svg" width="73.6" height="106.409" viewBox="0 0 73.6 106.409">
  <g id="rALOi7.tif" transform="translate(-567.489 -2309.019)">
    <g id="Group_39" data-name="Group 39" transform="translate(567.489 2309.019)">
      <path id="Path_209" data-name="Path 209" d="M567.489,2345.334a36.79,36.79,0,0,1,38.953-36.245,36.49,36.49,0,0,1,19.623,7.06.436.436,0,0,1,.189.576,76.416,76.416,0,0,1-51.277,50.859.37.37,0,0,1-.489-.166,36.609,36.609,0,0,1-6.4-15.047A40.1,40.1,0,0,1,567.489,2345.334Z" transform="translate(-567.489 -2309.019)" fill="#b1a9cb"/>
      <path id="Path_210" data-name="Path 210" d="M638.321,2332.091a36.74,36.74,0,0,1-59.184,43.286c.75-.231,1.486-.462,2.224-.684,5.868-1.763,11.824-3.174,17.8-4.507,4.613-1.029,9.225-2.069,13.813-3.2a52.5,52.5,0,0,0,11.231-4.051,27.775,27.775,0,0,0,10.588-9.014,25.483,25.483,0,0,0,4.215-10.393,24.407,24.407,0,0,0,.162-7.13c-.175-1.369-.526-2.715-.8-4.071C638.36,2332.263,638.346,2332.2,638.321,2332.091Z" transform="translate(-570.483 -2314.95)" fill="#b1a9cb"/>
      <path id="Path_211" data-name="Path 211" d="M619.154,2439.583c0,.224,0,.352,0,.479q0,2.715,0,5.429c0,.437-.047.483-.475.484-.467,0-.933-.009-1.4,0-.286.007-.406-.128-.415-.4,0-.045,0-.089,0-.133.016-3.553.01-7.106.058-10.659a6.723,6.723,0,0,1,13.354-1.293,6.587,6.587,0,0,1-10.776,6.372C619.412,2439.794,619.322,2439.722,619.154,2439.583Zm8.873-4.83c-.065-.427-.1-.86-.2-1.276a4.328,4.328,0,0,0-5.042-3.242,4.666,4.666,0,0,0-3.521,5.221,4.445,4.445,0,0,0,5.911,3.612A4.5,4.5,0,0,0,628.027,2434.753Z" transform="translate(-580.182 -2339.57)" fill="#b1a9cb"/>
      <path id="Path_212" data-name="Path 212" d="M577.791,2439.588v.455q0,2.715,0,5.43c0,.44-.06.5-.5.5-.467,0-.932,0-1.4,0-.282,0-.4-.126-.4-.4,0-3.4-.015-6.8.019-10.195a8.521,8.521,0,0,1,.71-3.693A6.72,6.72,0,0,1,589,2434.228a6.533,6.533,0,0,1-2.88,6.175,6.6,6.6,0,0,1-7.9-.451C578.1,2439.854,577.986,2439.754,577.791,2439.588Zm.074-4.761c0,.166-.007.333,0,.5a2.809,2.809,0,0,0,.06.394,4.429,4.429,0,0,0,7.3,2.449,4.854,4.854,0,0,0,0-6.805,4.221,4.221,0,0,0-5.819-.117A4.652,4.652,0,0,0,577.865,2434.828Z" transform="translate(-569.546 -2339.569)" fill="#b1a9cb"/>
      <path id="Path_213" data-name="Path 213" d="M604.94,2436.22l-3.16-.34a6.188,6.188,0,0,0-2.69.288c-.3.1-.312.241-.2.489a4.378,4.378,0,0,0,3.293,2.54,4.192,4.192,0,0,0,4.068-1.356.5.5,0,0,1,.7-.126c.429.233.874.433,1.3.665.4.215.424.38.129.724a7.062,7.062,0,0,1-10.335.23,6.906,6.906,0,0,1,3.579-11.322,6.6,6.6,0,0,1,7.76,4.868c.137.487.184,1,.273,1.5a.643.643,0,0,1-.436.794,23.946,23.946,0,0,1-2.322.783A16.114,16.114,0,0,1,604.94,2436.22Zm2.444-2.553a4.683,4.683,0,0,0-4.874-3.528c-2.186.334-4.238,2.454-3.971,4.117.053-.013.107-.021.158-.039a8.807,8.807,0,0,1,3.312-.412c1.186.054,2.371.132,3.557.125A12.663,12.663,0,0,0,607.384,2433.667Z" transform="translate(-574.898 -2339.574)" fill="#b1a9cb"/>
      <path id="Path_214" data-name="Path 214" d="M642.234,2441.506a7.456,7.456,0,0,1-4.773-2.033c-.349-.311-.35-.406,0-.7s.715-.565,1.059-.862a.448.448,0,0,1,.693.01,5.05,5.05,0,0,0,2.709,1.324,3.919,3.919,0,0,0,2.466-.318,1.523,1.523,0,0,0,1-1.477,1.466,1.466,0,0,0-1.166-1.342c-.677-.2-1.378-.321-2.072-.459a9.093,9.093,0,0,1-2.637-.877,3.335,3.335,0,0,1-.789-5.45,4.8,4.8,0,0,1,3.211-1.427,7.008,7.008,0,0,1,5,1.425c.411.324.43.493.045.843-.288.261-.593.5-.883.761a.546.546,0,0,1-.8.013,4.233,4.233,0,0,0-2.875-.947,3.06,3.06,0,0,0-1.638.481,1.367,1.367,0,0,0,.01,2.444,5.99,5.99,0,0,0,2.067.7c.724.157,1.463.267,2.172.476a3.711,3.711,0,0,1,2.532,2.043,3.557,3.557,0,0,1-1.3,4.354,5.741,5.741,0,0,1-2.8.956C643.054,2441.479,642.643,2441.484,642.234,2441.506Z" transform="translate(-585.409 -2339.572)" fill="#b1a9cb"/>
      <path id="Path_215" data-name="Path 215" d="M655.132,2434.881q0-2.931,0-5.863c0-.5.02-.521.533-.521q.616,0,1.232,0c.5,0,.536.039.536.528v10.527c0,.444,0,.889,0,1.333,0,.351-.1.448-.458.45q-.7.005-1.4,0c-.363,0-.443-.084-.444-.457Q655.132,2437.879,655.132,2434.881Z" transform="translate(-590.019 -2339.733)" fill="#b1a9cb"/>
      <path id="Path_216" data-name="Path 216" d="M656.146,2425.638a1.529,1.529,0,0,1-1.541-1.5,1.562,1.562,0,0,1,1.548-1.543,1.522,1.522,0,0,1,1.507,1.533A1.488,1.488,0,0,1,656.146,2425.638Z" transform="translate(-589.884 -2338.215)" fill="#b1a9cb"/>
    </g>
  </g>
</svg>
