<svg xmlns="http://www.w3.org/2000/svg" width="241.764" height="47.424" viewBox="0 0 241.764 47.424">
  <g id="Group_4285" data-name="Group 4285" transform="translate(1802.927 -3770.258)">
    <path id="Path_1310" data-name="Path 1310" d="M-1668.122,3779.291a9.863,9.863,0,0,0-1.84-.155,7.93,7.93,0,0,0-4,1.1,9.851,9.851,0,0,0-3.157,2.864,4.04,4.04,0,0,0-1.872-2.532,7.584,7.584,0,0,0-3.707-.844,20.534,20.534,0,0,0-2.166.148l-.77.146v30.906h8.882v-20.115a3.491,3.491,0,0,1,1.4-2.827,5.175,5.175,0,0,1,3.375-1.174,6.743,6.743,0,0,1,2.5.44,7.483,7.483,0,0,1,1.364.732Z" transform="translate(79.978 6.053)" fill="#fff" fill-rule="evenodd"/>
    <path id="Path_1311" data-name="Path 1311" d="M-1789.089,3779.091h-13.655a14.284,14.284,0,0,1-.183-2.6,4.271,4.271,0,0,1,1.505-3.414,6.054,6.054,0,0,1,4.038-1.285h30.721a17.766,17.766,0,0,1,.183,2.827,4.184,4.184,0,0,1-1.394,3.3,5.887,5.887,0,0,1-3.964,1.211h-8.221v36.448h-9.03Z" transform="translate(0 1.042)" fill="#fff"/>
    <path id="Path_1312" data-name="Path 1312" d="M-1759.134,3798.522a14.226,14.226,0,0,0-.441-4.3,3.122,3.122,0,0,0-1.431-1.8,5.881,5.881,0,0,0-2.788-.55,7.858,7.858,0,0,0-4.185,1.028,2.885,2.885,0,0,0-1.689,2.533v21.178h-8.882v-46.1a6.271,6.271,0,0,1,1.174-.148,16.559,16.559,0,0,1,1.835-.111c3.927,0,5.873,1.727,5.873,5.175v12.994c2.128-2.422,5.175-3.67,9.139-3.67a11.583,11.583,0,0,1,6.606,1.652,7.647,7.647,0,0,1,3.12,5.029,34.053,34.053,0,0,1,.513,6.716v18.427h-8.882v-18.058Z" transform="translate(16.622 0)" fill="#fff"/>
    <path id="Path_1313" data-name="Path 1313" d="M-1730.515,3803.1c0,3.413.515,5.91,1.505,7.525a12.908,12.908,0,0,1-4.3.844,6.144,6.144,0,0,1-3.449-.844,4.181,4.181,0,0,1-1.651-2.681,10.8,10.8,0,0,1-4.075,2.681,15.133,15.133,0,0,1-5.468.917,10.334,10.334,0,0,1-7.231-2.531,9.148,9.148,0,0,1-2.79-7.084q0-10.131,16-10.976c.7-.037,1.688-.072,2.937-.072v-1.176a4.2,4.2,0,0,0-1.322-3.487c-.88-.733-2.313-1.064-4.368-1.064a13.842,13.842,0,0,0-4.036.587,26.613,26.613,0,0,0-5.212,2.422,9.634,9.634,0,0,1-1.431-2.348,5.657,5.657,0,0,1-.587-2.092c0-.844.624-1.614,1.907-2.385a16.646,16.646,0,0,1,4.808-1.8,26.362,26.362,0,0,1,5.945-.661c4.516,0,7.782.954,9.8,2.826s3.009,4.919,3.009,9.141Zm-8.369-7.562h-.917a7.386,7.386,0,0,0-.918.074c-3.12.22-5.4.806-6.79,1.724a4.5,4.5,0,0,0-2.092,3.967,4.355,4.355,0,0,0,1.174,3.229,4.624,4.624,0,0,0,3.413,1.137,8.006,8.006,0,0,0,4.221-1.137c1.285-.77,1.909-1.54,1.909-2.312Z" transform="translate(30.655 5.878)" fill="#fff"/>
    <path id="Path_1314" data-name="Path 1314" d="M-1727.714,3810.7h-8.956V3779.8l.771-.146a20.506,20.506,0,0,1,2.165-.148c3.231,0,5.066,1.138,5.543,3.414,2.02-2.716,5.212-4.038,9.617-4.038a10.812,10.812,0,0,1,5.066,1.065,7.22,7.22,0,0,1,3.046,3.3c2.349-2.9,5.653-4.37,9.947-4.37a11.127,11.127,0,0,1,6.534,1.726,6.886,6.886,0,0,1,2.863,4.917,44.217,44.217,0,0,1,.441,6.718v18.427h-8.884v-18.021a15.113,15.113,0,0,0-.366-4.149,2.807,2.807,0,0,0-1.32-1.688,5.254,5.254,0,0,0-2.642-.55,7.472,7.472,0,0,0-3.122.733,5.138,5.138,0,0,0-2.239,1.763,32.418,32.418,0,0,1,.183,3.853v18.1h-8.882v-18.023a14.3,14.3,0,0,0-.441-4.368,3.142,3.142,0,0,0-1.394-1.726,5.725,5.725,0,0,0-2.753-.55,6.188,6.188,0,0,0-3.744,1.028,2.934,2.934,0,0,0-1.468,2.533V3810.7Z" transform="translate(45.179 5.877)" fill="#fff"/>
    <path id="Path_1315" data-name="Path 1315" d="M-1687.738,3805.124a10.165,10.165,0,0,0,3.707-.589,9.986,9.986,0,0,0,2.57-1.394c.7-.55,1.32-1.065,1.835-1.542a14.889,14.889,0,0,1,1.726,2.716,5.413,5.413,0,0,1,.733,2.313,3.293,3.293,0,0,1-1.615,2.607,12.365,12.365,0,0,1-4.184,1.872,22.7,22.7,0,0,1-5.616.7c-5.323,0-9.4-1.468-12.26-4.368s-4.294-7.158-4.294-12.737a17.424,17.424,0,0,1,1.944-8.478,13.655,13.655,0,0,1,5.358-5.434,15.762,15.762,0,0,1,7.671-1.909c4.259,0,7.564,1.25,9.911,3.708,2.313,2.458,3.487,5.836,3.487,10.167a28.4,28.4,0,0,1-.183,4.038h-19.2a9.314,9.314,0,0,0,2.423,6.2,8,8,0,0,0,5.983,2.129m2.937-13.251c0-4.7-1.835-7.045-5.542-7.045a5.18,5.18,0,0,0-4.3,1.907,7.921,7.921,0,0,0-1.578,5.175h11.415Z" transform="translate(66.682 5.877)" fill="#fff"/>
    <path id="Path_1316" data-name="Path 1316" d="M-1645.72,3770.88a11.32,11.32,0,0,1-11.016,11.168,11.076,11.076,0,0,1-11.167,11.016v-11.016a11.1,11.1,0,0,1-11.016-11.168h11.016a11.162,11.162,0,0,1,10.966,9.049,13.734,13.734,0,0,0-3.885-7.771,13.183,13.183,0,0,0-1.5-1.278Z" transform="translate(84.557 0.424)" fill="#fff" fill-rule="evenodd"/>
  </g>
</svg>
