<svg xmlns="http://www.w3.org/2000/svg" width="53.375" height="63.776" viewBox="0 0 53.375 63.776">
  <g id="Group_4284" data-name="Group 4284" transform="translate(-410.292 -60)">
    <g id="Group_4283" data-name="Group 4283" transform="translate(410.292 60)">
      <path id="Path_1307" data-name="Path 1307" d="M22,75.776v-13H46.628a49.358,49.358,0,0,0,8.379-.578,15.881,15.881,0,0,0,5.2-1.8,6.694,6.694,0,0,0,2.6-2.889,10.058,10.058,0,0,0,.723-3.9,17.943,17.943,0,0,0-2.094-8.018,42.383,42.383,0,0,0-5.417-8.449,78.563,78.563,0,0,0-7.511-8.161q-4.191-4.046-8.451-7.511L49.662,12a116.868,116.868,0,0,1,9.317,9.028A80.589,80.589,0,0,1,67.213,31.14a53.35,53.35,0,0,1,5.923,10.69,28.526,28.526,0,0,1,2.239,10.834,27.829,27.829,0,0,1-1.518,9.389,18.815,18.815,0,0,1-4.767,7.295,22.761,22.761,0,0,1-8.378,4.767,40.651,40.651,0,0,1-12.422,1.661Z" transform="translate(-22 -12)" fill="#fff"/>
      <path id="Path_1308" data-name="Path 1308" d="M25.1,37.407l2.228-.631c9.555-2.708,18.933,2.254,23.822,5.206l2.14,1.292L51.8,46.163l-2.138-1.291c-4.135-2.5-12.918-5.278-20.819-3.257l-4.777,1.469Z" transform="translate(-21.041 -0.875)" fill="#fff" opacity="0.4"/>
      <path id="Path_1309" data-name="Path 1309" d="M29.071,24.9l1.01.193c13.263,2.971,21.111,12.646,24.555,19.206L55.7,46.315l-2.738,1.733L51.648,45.5c-3.12-5.941-15.172-13.666-22.912-14.709l-2.38-.533Z" transform="translate(-19.98 -6.022)" fill="#fff" opacity="0.7"/>
    </g>
  </g>
</svg>
