<svg xmlns="http://www.w3.org/2000/svg" width="306.93" height="39.397" viewBox="0 0 306.93 39.397">
  <g id="uSaj0M.tif" transform="translate(-104.22 -2079.405)">
    <g id="Group_37" data-name="Group 37" transform="translate(104.22 2079.405)">
      <path id="Path_193" data-name="Path 193" d="M299.3,2118.868a15.786,15.786,0,0,1,7.7-6.765,8.189,8.189,0,0,1,3.273-.671c8.242.015,16.484,0,24.726-.014h1.757a32.623,32.623,0,0,0,.116-8.418c-3.878-.049-7.8-.016-11.727-.022q-5.913-.01-11.826,0H301.57c-.348-1.34-.391-21.777-.074-23.354h43.3a17.125,17.125,0,0,1-.84,1.967,12.4,12.4,0,0,1-6.97,5.471,5.7,5.7,0,0,1-1.822.16q-12.133.015-24.266.006h-1.751a32.682,32.682,0,0,0-.1,8c1.922.081,3.9.023,5.869.033,1.945.011,3.891,0,5.837,0h23.709c.055.612.13,1.056.13,1.5q.01,10.521,0,21.043a9.482,9.482,0,0,1-.119,1.061Z" transform="translate(-163.463 -2079.471)" fill="#b1a9cb"/>
      <path id="Path_194" data-name="Path 194" d="M125.733,2118.814q.008-14.962.013-29.924c0-1.455-.075-1.523-1.593-1.529-3.172-.013-6.346-.094-9.513.018-3.97.139-6.681-1.823-8.78-4.922-.4-.587-.634-1.281-.987-1.9a5.415,5.415,0,0,0-.652-.776v-.307l39-.026q4.76,0,9.519,0h1.843a8.94,8.94,0,0,1-.309,1.236,10.992,10.992,0,0,1-6.686,6.356,6.53,6.53,0,0,1-2.1.3c-3.326.03-6.653.012-9.98.015-.409,0-.82,0-1.228.028a.8.8,0,0,0-.854.872c0,.307-.01.614-.01.921q0,14.818.006,29.636Z" transform="translate(-104.22 -2079.417)" fill="#b1a9cb"/>
      <path id="Path_195" data-name="Path 195" d="M481.137,2125.689c.024-.612.069-1.225.07-1.837q.007-9.9,0-19.81V2102.4c1.153-.354,41.128-.442,43.5-.1q.033,11.661.066,23.386h-7.683v-15.541H488.82v15.541Z" transform="translate(-218.685 -2086.292)" fill="#b1a9cb"/>
      <path id="Path_196" data-name="Path 196" d="M396.4,2118.873V2079.64h7.625v31.911h34.53a9.689,9.689,0,0,1-.254,1.329,10.509,10.509,0,0,1-3.832,5.063c-.407.3-.794.619-1.191.93Z" transform="translate(-192.95 -2079.476)" fill="#b1a9cb"/>
      <path id="Path_197" data-name="Path 197" d="M210.229,2132.742c-.4-.3-.783-.61-1.2-.884a11.439,11.439,0,0,1-4.684-6.22c1.221-.343,43.083-.461,45.514-.148a9.131,9.131,0,0,1-.3,1.137,11.212,11.212,0,0,1-4.44,5.328c-.375.241-.725.523-1.086.786Z" transform="translate(-134.628 -2093.345)" fill="#b1a9cb"/>
      <path id="Path_198" data-name="Path 198" d="M250.032,2102.211a11.2,11.2,0,0,1-4.062,5.96,8.565,8.565,0,0,1-5.4,1.835c-9.063-.051-18.128-.085-27.191.006-4.078.042-8.57-4.573-8.835-7.8Z" transform="translate(-134.686 -2086.331)" fill="#b1a9cb"/>
      <path id="Path_199" data-name="Path 199" d="M479.865,2079.58h45.363a3.955,3.955,0,0,1-.116.79,10.619,10.619,0,0,1-6,6.417,8.554,8.554,0,0,1-3.128.573c-8.75.044-17.5-.042-26.25.056a9.744,9.744,0,0,1-8.422-4.449A6.254,6.254,0,0,1,479.865,2079.58Z" transform="translate(-218.298 -2079.458)" fill="#b1a9cb"/>
      <path id="Path_200" data-name="Path 200" d="M249.845,2079.629a5.916,5.916,0,0,1-.2.865,11.023,11.023,0,0,1-5.008,5.8,7.351,7.351,0,0,1-3.657.985q-13.811-.02-27.622,0a8.108,8.108,0,0,1-5.067-1.9,10.883,10.883,0,0,1-3.913-5.7C205.684,2079.34,248.337,2079.3,249.845,2079.629Z" transform="translate(-134.638 -2079.405)" fill="#b1a9cb"/>
    </g>
  </g>
</svg>
