<svg xmlns="http://www.w3.org/2000/svg" width="237.221" height="39.397" viewBox="0 0 237.221 39.397">
  <g id="CX9Z3f.tif" transform="translate(-154.713 -2222.093)">
    <g id="Group_38" data-name="Group 38" transform="translate(154.713 2222.093)">
      <path id="Path_201" data-name="Path 201" d="M527.134,2254.945c-.429,1.859-.429,1.858-2.325,1.859l-17.091.009h-1.261c-.161,2.563,2.037,5.219,4.9,5.808,2.766.57,5.285.13,7.1-2.341a1.143,1.143,0,0,1,.729-.481c2.292-.037,4.585-.022,7.013-.022a11.555,11.555,0,0,1-4.568,6.221,14.119,14.119,0,0,1-15.282,1.019c-5.066-2.562-7.437-6.976-7.43-12.58.009-7.24,6.243-13.406,13.483-13.746a13.923,13.923,0,0,1,14.484,12.43,9.932,9.932,0,0,0,.247,1.121Zm-20.552-3.342H519.33c-.435-2.9-2.883-4.821-6.129-4.892A6.294,6.294,0,0,0,506.582,2251.6Z" transform="translate(-289.913 -2229.392)" fill="#b1a9cb"/>
      <path id="Path_202" data-name="Path 202" d="M279.571,2259.286a13.475,13.475,0,0,1-11.431,2.117,13.151,13.151,0,0,1-7.081-4.721,14.287,14.287,0,0,1-.349-17.12,13.355,13.355,0,0,1,8.8-5.488c3.658-.647,6.912.419,10.14,2.487v-13.289c2.215,0,4.274-.015,6.331.026.187,0,.436.349.529.585a2.35,2.35,0,0,1,.03.811c0,11.783-.018,23.566.029,35.348,0,1.193-.31,1.566-1.5,1.5-1.743-.1-3.5-.025-5.336-.025Zm.363-11.4a7.413,7.413,0,0,0-14.826.095,7.453,7.453,0,0,0,7.417,7.352A7.376,7.376,0,0,0,279.934,2247.885Z" transform="translate(-195.295 -2222.555)" fill="#b1a9cb"/>
      <path id="Path_203" data-name="Path 203" d="M334.39,2243.372l.125-2h6.772v27.108h-4.595c-2.075,0-2.075,0-2.374-2.133a13.421,13.421,0,0,1-12.7,1.563,13.232,13.232,0,0,1-6.673-5.639,14.265,14.265,0,0,1,1.654-17.034C321.106,2240.289,326.822,2239.665,334.39,2243.372ZM320,2254.824a7.4,7.4,0,1,0,7.389-7.321A7.35,7.35,0,0,0,320,2254.824Z" transform="translate(-216.834 -2229.516)" fill="#b1a9cb"/>
      <path id="Path_204" data-name="Path 204" d="M449.8,2241.176h6.742c.042.72.082,1.4.107,1.844a49.865,49.865,0,0,1,5.77-2.2,10.554,10.554,0,0,1,6.657.545,8.4,8.4,0,0,1,5.586,8.04c.138,5.924.055,11.854.024,17.78,0,.344-.363.977-.574.984-2.131.073-4.266.045-6.542.045v-1.4q0-6.96,0-13.921c-.005-3.721-1.734-5.729-4.937-5.759-3.556-.033-5.82,2.2-5.841,5.846-.025,4.367.01,8.735,0,13.1-.007,2.46.271,2.112-2.089,2.138-1.366.015-2.731-.014-4.1.008-.605.01-.936-.136-.935-.839q.028-12.868.025-25.736A2.472,2.472,0,0,1,449.8,2241.176Z" transform="translate(-270.568 -2229.33)" fill="#b1a9cb"/>
      <path id="Path_205" data-name="Path 205" d="M221.876,2241.14a13.78,13.78,0,0,0-9.326,4.353c-3.021,3.4-4.2,7.282-2.427,11.667a7.726,7.726,0,0,0,7.648,4.754,7.494,7.494,0,0,0,6.742-5.6,7.074,7.074,0,0,0-4.811-8.782c-1.074-.341-1.319-.859-.949-1.751a9.487,9.487,0,0,1,1.345-2.547c1.588-1.867,2.878-2,4.976-.759a13.906,13.906,0,0,1,6.368,15.92,14.55,14.55,0,0,1-14.981,10.166c-6.685-.461-12.259-5.234-13.378-11.454a14.085,14.085,0,0,1,10.6-16.263A13.852,13.852,0,0,1,221.876,2241.14Z" transform="translate(-173.621 -2229.269)" fill="#b1a9cb"/>
      <path id="Path_206" data-name="Path 206" d="M404.328,2268.047c1.092-.23,2.2-.39,3.273-.7a12.25,12.25,0,0,0,9.068-12.515,8.163,8.163,0,0,0-7.45-7.592,7.571,7.571,0,0,0-7.713,5.728,7.055,7.055,0,0,0,4.934,8.725c.966.307,1.128.771.922,1.61a5.535,5.535,0,0,1-3.816,4.214,2.118,2.118,0,0,1-1.4-.214,13.906,13.906,0,0,1-8-14.33,14.339,14.339,0,0,1,11.236-12.043c8.229-1.737,16.214,3.409,17.621,11.356a14.139,14.139,0,0,1-13.389,16.447c-1.76.056-3.532-.211-5.3-.329Z" transform="translate(-248.717 -2229.358)" fill="#b1a9cb"/>
      <path id="Path_207" data-name="Path 207" d="M169.331,2259.746l3.651-10.584c.788-2.283,1.546-4.576,2.392-6.837a1.431,1.431,0,0,1,1.009-.8c2.258-.072,4.52-.037,6.947-.037-.146.479-.245.871-.384,1.249q-4.59,12.443-9.173,24.888a1.282,1.282,0,0,1-1.442,1c-2.3-.053-4.6.013-6.9-.051a1.443,1.443,0,0,1-1.094-.691q-4.805-12.86-9.516-25.755a3.677,3.677,0,0,1-.1-.637c2.473,0,4.89-.036,7.3.044.315.01.755.564.894.953,1.935,5.388,3.827,10.792,5.733,16.191.126.354.272.7.409,1.053Z" transform="translate(-154.713 -2229.709)" fill="#b1a9cb"/>
      <path id="Path_208" data-name="Path 208" d="M377.928,2233.846h4.1c0,1.971.02,3.86-.033,5.748,0,.171-.473.445-.744.47a12.415,12.415,0,0,1-2.222.01c-.933-.085-1.2.274-1.193,1.191.035,5.813.018,11.627.018,17.439v2.262c-2.256,0-4.383.027-6.507-.05-.171-.007-.453-.719-.455-1.1-.03-5.345-.021-10.69-.021-16.035v-3.639h-3.063v-6.259H370.8c.027-.5.061-.875.067-1.256.013-.859-.018-1.719.025-2.575.253-5,2.536-7.367,7.517-7.82,3.583-.327,3.583-.327,3.583,3.229v2.77C378.112,2228.119,377.637,2229.2,377.928,2233.846Z" transform="translate(-238.414 -2222.093)" fill="#b1a9cb"/>
    </g>
  </g>
</svg>
